<?xml version="1.0" encoding="UTF-8"?>
<svg width="26px" height="26px" viewBox="0 0 26 26" version="1.1" xmlns="http://www.w3.org/2000/svg" xmlns:xlink="http://www.w3.org/1999/xlink">
    <title>Group Copy</title>
    <defs>
        <linearGradient x1="1.46315029%" y1="1.46315029%" x2="98.2229949%" y2="98.2229949%" id="linearGradient-1">
            <stop stop-color="#FF5980" offset="0%"></stop>
            <stop stop-color="#FFA882" offset="100%"></stop>
        </linearGradient>
    </defs>
    <g id="Dashboard" stroke="none" stroke-width="1" fill="none" fill-rule="evenodd">
        <g transform="translate(-23.000000, -303.000000)" id="Menu">
            <g id="icons/-Bar--/Calendar-Copy" transform="translate(0.000000, 296.000000)">
                <g id="Group-Copy" transform="translate(23.000000, 7.000000)">
                    <path d="M9,14 C10.6568542,14 12,15.3431458 12,17 L12,23 C12,24.6568542 10.6568542,26 9,26 L3,26 C1.34314575,26 2.02906125e-16,24.6568542 0,23 L0,17 C-2.02906125e-16,15.3431458 1.34314575,14 3,14 L9,14 Z M23,14 C24.6568542,14 26,15.3431458 26,17 L26,23 C26,24.6568542 24.6568542,26 23,26 L17,26 C15.3431458,26 14,24.6568542 14,23 L14,17 C14,15.3431458 15.3431458,14 17,14 L23,14 Z M9,0 C10.6568542,-3.04359188e-16 12,1.34314575 12,3 L12,9 C12,10.6568542 10.6568542,12 9,12 L3,12 C1.34314575,12 2.02906125e-16,10.6568542 0,9 L0,3 C-2.02906125e-16,1.34314575 1.34314575,3.04359188e-16 3,0 L9,0 Z M23,0 C24.6568542,-3.04359188e-16 26,1.34314575 26,3 L26,9 C26,10.6568542 24.6568542,12 23,12 L17,12 C15.3431458,12 14,10.6568542 14,9 L14,3 C14,1.34314575 15.3431458,3.04359188e-16 17,0 L23,0 Z" id="Combined-Shape" fill="url(#linearGradient-1)"></path>
                    <rect id="Rectangle-Copy-7" fill="#FFFFFF" x="0" y="0" width="12" height="12" rx="3"></rect>
                </g>
            </g>
        </g>
    </g>
</svg>