<?xml version="1.0"?>
<svg xmlns:rdf="http://www.w3.org/1999/02/22-rdf-syntax-ns#" xmlns="http://www.w3.org/2000/svg" xmlns:cc="http://creativecommons.org/ns#" xmlns:xlink="http://www.w3.org/1999/xlink" xmlns:dc="http://purl.org/dc/elements/1.1/" id="svg2" viewBox="0 0 1070 845" version="1.1">
  <title id="title4857">Meeting Presentation</title>
  <defs id="defs4">
    <linearGradient id="linearGradient3636" x1="336.03" gradientUnits="userSpaceOnUse" y1="36.219" gradientTransform="matrix(3.1435 0 0 5.0001 -531.33 871.26)" x2="336.03" y2="-128.78">
      <stop id="stop3632" stop-color="#505494" offset="0"/>
      <stop id="stop3634" stop-color="#e93d63" offset="1"/>
    </linearGradient>
    <linearGradient id="linearGradient3675" y2="693.96" gradientUnits="userSpaceOnUse" y1="693.96" x2="766.37" x1="245.71">
      <stop id="stop3671" stop-color="#323232" offset="0"/>
      <stop id="stop3673" stop-color="#535353" offset="1"/>
    </linearGradient>
    <linearGradient id="linearGradient3957" x1="400.62" gradientUnits="userSpaceOnUse" x2="951.62" gradientTransform="translate(-.00023)" y1="642.04" y2="542.2">
      <stop id="stop3880" stop-color="#fff" stop-opacity=".18824" offset="0"/>
      <stop id="stop3882" stop-color="#fff" stop-opacity="0" offset="1"/>
    </linearGradient>
    <clipPath id="clipPath">
      <path id="rect2832-1" style="color:#000000" d="m110 227.36h830c60.94 0 110 49.06 110 110v605c0 60.94-49.06 110-110 110h-830c-60.94 0-110-49.06-110-110v-605c0-60.94 49.06-110 110-110z" stroke="#1a1a1a" stroke-width="20" fill="url(#linearGradient3636)"/>
    </clipPath>
    <filter id="filter" y="-.5" x="-.5" width="2" height="2">
      <feGaussianBlur id="feGaussianBlur4612" stdDeviation="5.0"/>
    </filter>
  </defs>
  <g id="layer1" transform="translate(10 -217.36)">
    <g id="g4847">
      <path id="path4616" style="color:#000000" d="m110 227.36h830c60.94 0 110 49.06 110 110v605c0 60.94-49.06 110-110 110h-830c-60.94 0-110-49.06-110-110v-605c0-60.94 49.06-110 110-110z" stroke="#1a1a1a" stroke-width="20" fill="url(#linearGradient3636)"/>
      <g id="g4671" clip-path="url(#clipPath)">
        <g id="g4673" stroke-width="10" fill="none">
          <path id="path4675" filter="url(#filter)" stroke="#fff" d="m940 227.36c60.9 0 110 49.06 110 110v605"/>
          <path id="path4677" filter="url(#filter)" stroke="#c0c0c0" d="m110 227.36h830"/>
          <path id="path4679" filter="url(#filter)" stroke="#808080" d="m1050 942.36c0 60.94-49.1 110.04-110 110.04m-940-715.04c0-60.94 49.06-110 110-110"/>
          <path id="path4681" filter="url(#filter)" stroke="#404040" d="m940 1052.4h-830"/>
          <path id="path4683" filter="url(#filter)" stroke="#000" d="m110 1052.4c-60.94 0-110-49.1-110-110.04v-605"/>
        </g>
      </g>
    </g>
    <path id="path2953" stroke="#ccc" transform="translate(0 227.36)" fill="#1a1a1a" d="m668.59 275.34c-4.3223 0.10535-8.6773 1.1704-12.781 3.25-11.503 5.829-16.946 14.22-17.625 27.156-0.40564 7.7285-0.24018 8.7396 2.7188 14.75 1.7661 3.5875 4.8118 7.7626 6.8438 9.4375 2.007 1.6544 3.4319 3.1488 3.1875 3.3125-0.24437 0.16367-2.5967 1.276-5.2188 2.5-6.6109 3.0861-13.211 9.4742-16.281 15.75-2.5852 5.2839-2.5656 5.3718-3.9688 48.656-2.1343 65.841-2.1423 65.755 2.0625 79.625 4.5205 14.912 6.7026 17.347 18.688 20.719 7.9163 2.227 28.767 1.5251 34.781-1.1875 6.2349-2.8122 8.1249-5.3184 12.812-16.875 4.89-12.03 5.15-14.12 8.7-70.44 3.1602-50.164 3.1819-54.031 0.15625-60.5-2.5-5.3449-9.281-12.232-14.781-15.031-1.8504-0.9416-3.5588-1.8954-3.7812-2.0938-0.22251-0.19839 1.679-2.1706 4.2188-4.4062 12.333-10.856 14.554-29.251 5.0938-42.281-5.9586-8.2072-15.303-12.576-24.812-12.344z"/>
    <path id="path2931" stroke="#ccc" transform="translate(0 227.36)" fill="#1a1a1a" d="m519 277c-7.6198 0-13.978 2.3543-19.469 7.1875-8.5869 7.5585-12.531 18.275-10.562 28.656 1.4342 7.5624 3.7745 11.941 9.3125 17.5 2.6611 2.6714 4.7015 4.9765 4.5312 5.125-0.17023 0.14847-2.2334 1.2471-4.5938 2.4375-6.0545 3.0536-12.001 9.3564-15 15.906l-2.5625 5.5938 1.25 44.062c1.8193 63.914 2.0657 66.881 6.625 79.406 2.0746 5.6992 4.8531 11.608 6.1562 13.156 2.6357 3.1324 8.3351 5.6359 15.844 6.9375 10.049 1.7419 28.405-0.94851 35.25-5.1562 3.9199-2.4096 4.9355-4.295 9.3125-17.312l3.3438-10 0.0312-57 0.0312-57-2.2812-4.2812c-3.1152-5.834-9.124-11.63-15.281-14.75l-5.1-2.61 4.66-4.97c6.6934-7.1558 8.9502-12.726 8.9375-21.906-0.0137-9.9075-2.8081-16.305-10.031-22.906-6.17-5.64-12.35-8.09-20.41-8.09z"/>
    <path id="path2909" style="color:#000000" d="m368.72 278.47c-4.494 0.0792-8.9203 1.0111-12.406 2.8125-6.3806 3.2972-11.446 8.3737-14.469 14.531-3.5107 7.1513-3.2929 18.715 0.46875 26.375 1.6136 3.2859 4.898 7.592 7.75 10.156 2.7223 2.4476 4.9375 4.6925 4.9375 4.9688 0 0.27622-1.9602 1.6344-4.3438 3.0312-5.4021 3.1658-11.254 9.6039-13.719 15.031-2.5946 5.714-2.4911 10.286 1.5625 55.75 5.2469 58.847 5.7891 62.507 10.719 73.844 2.2802 5.2435 4.8191 10.578 5.625 11.844 1.8203 2.8586 6.1449 5.1721 12.656 6.7812 6.9274 1.7119 13.881 1.682 23.406-0.125 16.97-3.2192 20.391-6.2306 24.688-21.625 2.6608-9.5341 2.8722-11.447 2.5938-24.344-0.54-24.72-5.07-96.88-6.31-100.5-2.8154-8.2109-9.5402-15.203-18.406-19.125-2.47-1.1-4.47-2.33-4.47-2.76 0-0.42137 1.3925-2.0721 3.0938-3.6875s4.2561-5.1875 5.6875-7.9375c3.5838-6.8851 3.7766-18.588 0.40625-26.094-2.87-6.39-10.17-13.63-16.69-16.56-3.7253-1.6744-8.2872-2.4542-12.781-2.375z" transform="translate(0 227.36)" stroke="#ccc" fill="#1a1a1a"/>
    <g id="g3677">
      <path id="path3664" d="m299.5 772.4c-22.421-2.601-40.711-14.136-47.778-30.131-2.3468-5.3117-3.4314-11.274-5.6612-31.123-2.1046-18.735 5.1457-36.91 21.527-53.964 18.37-19.14 40.9-31.35 69.91-37.92 8.3833-1.8971 14.002-2.0963 82-2.9061 40.15-0.47818 114.4-1.0126 165-1.1876 100.39-0.34716 95.393-0.58297 113.5 5.3552 31.725 10.404 57.393 33.185 66.235 58.785 2.0046 5.8036 2.2416 8.291 2.0995 22.042-0.10091 9.7716-0.7413 18.178-1.7328 22.746-5.6012 25.807-26.835 42.036-59.102 45.172-6.5757 0.63904-67.31 1.4688-151 2.0629-77 0.54663-164.3 1.1917-194 1.4335s-57.15 0.0742-61-0.37245z" fill="url(#linearGradient3675)"/>
      <path id="path3660" d="m299.5 770.34c-21.304-2.2988-38.61-13.123-45.588-28.512-2.7781-6.127-5.2383-19.095-3.2186-16.966 0.52168 0.55 3.027 3.4917 5.5673 6.5371 5.7569 6.9015 15.921 12.864 28.24 16.565l9 2.7043 36.5 0.0968c74.737 0.19814 334.44-1.5605 360-2.4378 25.174-0.86412 26.96-1.0552 35.689-3.8176 15.935-5.0425 28.19-13.253 34.473-23.094 2.5-3.91 2.84-4.14 2.84-1.95 0 9.0304-6.4373 22.163-14.735 30.059-10.77 10.25-24.21 15.82-42.76 17.74-5.8888 0.60888-72.491 1.4553-162 2.0589-83.6 0.56369-170.9 1.218-194 1.4539-23.1 0.23597-45.6 0.0406-50-0.43421z" fill="#020202"/>
    </g>
    <g id="g4101">
      <path id="path2999" d="m286.74 688.4c-10.17-0.85-12.74-1.91-12.74-5.3 0-2.7126 8.5386-19.774 11.851-23.68 3.7476-4.4193 9.1694-5.0466 43.649-5.0501 29.72-0.003 44.875 1.1044 49.779 3.6375 1.5286 0.78959 3.2417 1.1499 3.8068 0.80061 1.4687-0.90767 5.9138 0.37923 5.9138 1.7121 0 0.61639 0.74812 1.6677 1.6625 2.3363 3.4564 2.5274 0.33891 5.3018-8.0344 7.1502-3.6249 0.80017-4.0143 1.25-6.1054 7.0529l-2.2335 6.1982 3.6054 0.30175c4.7788 0.39994 3.6992 2.2704-1.3946 2.4163-2.2 0.063-5.8 0.651-8 1.3066-4.906 1.462-67.39 2.3171-81.761 1.1189z" fill-opacity=".50196"/>
      <g id="g3831">
        <path id="path3837" d="m375.72 686.26c-1.7447-1.0155-1.7576-3.9956-0.0442-10.21 0.769-2.7891 4.748-1.7806 5.1615 1.3083 0.18407 1.375 0.74657 2.9275 1.25 3.45 1.5419 1.6003 1.0203 4.4235-1.0189 5.5148-2.3692 1.268-3.0756 1.2596-5.3483-0.0631z" fill="#d2d2d2"/>
        <path id="path3835" d="m376.23 685.11c-1.3889-1.706-0.0573-9.25 1.6327-9.25 1.9169 0 4.3504 7.5416 2.9702 9.2047-1.3602 1.6389-3.29 1.6579-4.6029 0.0453z" fill="#a4a4a4"/>
        <path id="path3833" d="m376.56 684.45c-0.30924-0.50036-0.29263-1.7379 0.0369-2.75 0.32955-1.0121 0.81464-2.5152 1.078-3.3402 0.31781-0.99563 0.95642-0.37247 1.8992 1.8533 0.78123 1.8443 1.171 3.7568 0.86624 4.25-0.71923 1.1637-3.1581 1.1555-3.8804-0.0131z" fill="#606060"/>
      </g>
      <g id="g3853">
        <path id="path3859" d="m382.39 660.94c-0.29911-0.77947-0.15825-3.367 0.31302-5.75 0.66059-3.3404 1.3046-4.3328 2.8115-4.3328 1.1829 0 2.0791 0.78964 2.2699 2 0.17339 1.1 0.80184 2.9821 1.3966 4.1825 0.59473 1.2004 0.81066 2.8879 0.47984 3.75-0.76359 1.9899-6.5193 2.1088-7.2709 0.15025z" fill="#d0d0d0"/>
        <path id="path3857" d="m383 659.99c0-3.3177 1.3446-7.625 2.3803-7.625 1.2334 0 3.7588 6.9659 2.9815 8.2236-0.84 1.36-5.36 0.86-5.36-0.59z" fill="#9f9f9f"/>
        <path id="path3855" d="m384.02 658.61c0.0307-3.5057 1.5706-4.4541 2.8112-1.7313 1.5387 3.3771 1.514 3.4813-0.82656 3.4813-1.2439 0-1.9942-0.66156-1.9847-1.75z" fill="#626262"/>
      </g>
      <g id="g3787">
        <path id="path3793" d="m314.31 682.25c-4.5074-2.3416-8.309-19.455-6.3067-28.389 1.7681-7.8897 9.7121-22.296 13.325-24.164 3.7-1.9133 27.881-4.2222 48.001-4.5833 13.332-0.23927 13.893-0.16656 15.686 2.0331 2.5644 3.1472 4.3682 12.182 4.3361 21.719-0.0201 5.9775-0.72471 10.13-2.7869 16.426-3.327 10.157-6.2594 13.516-12.588 14.417-18.943 2.6964-56.305 4.2883-59.666 2.5422z" fill="#989898"/>
        <path id="path3791" d="m314.83 681.4c-3.3-2.07-5.33-9.9-5.33-20.55 0-9.8724 0.062-10.134 4.5115-19 3.6674-7.3079 5.1642-9.3 8-10.647 3.4604-1.6435 17.359-3.0228 44.488-4.415 16.305-0.83668 16.316-0.82691 13.019 11.072-1.3717 4.95-2.4996 9.3218-2.5064 9.7152-0.007 0.39337 1.2716 2.1934 2.8409 4 5.0862 5.8552 5.4746 7.247 4.0821 14.627-1.6015 8.4878-4.4976 11.653-11.487 12.553-19.049 2.4546-55.28 4.1192-57.617 2.6472z" fill="#585858"/>
        <path id="path3789" d="m314.7 679.16c-2.88-2.89-4.7-10.21-4.7-18.92 0-6.8556 4.193-18.283 8.5794-23.381 2.8956-3.3657 2.8325-3.0824-1.7249 7.7472-2.6249 6.2375-3.0139 7.9913-1.996 9 0.96523 0.95655 7.4591 1.1777 27.459 0.93505 16.007-0.19419 27.227 0.0745 28.848 0.69086 2.2205 0.84422 3.1327 2.4821 5.5956 10.047 2.785 8.5538 2.8494 9.1223 1.2027 10.613-1.8521 1.6761-20.253 3.6377-47.129 5.0239-13.622 0.70259-13.673 0.697-16.132-1.7623z" fill="#0f0f0f"/>
      </g>
      <g id="g3809">
        <path id="path3815" d="m386.27 655.67c-1.8882-0.2499-4.0442-1.4672-5.1993-2.9358-2.3118-2.939-3.5641-9.8641-2.5877-14.31 1.0334-4.7052 4.2779-6.239 14.421-6.8174 8.6278-0.49193 8.918-0.43653 10.52 2.0084 2.286 3.4889 2.7008 18.058 0.57223 20.098-1.5845 1.519-12.188 2.6891-17.726 1.9561z" fill="#9e9e9e"/>
        <path id="path3813" d="m382.17 652.32c-2.4418-2.6209-3.5611-11.378-1.896-14.833 1.4949-3.1017 4.1227-3.8934 13.351-4.0225 8.93-0.12489 9.7221 0.69306 10.22 10.554 0.50273 9.9556 0.09 10.346-10.931 10.346-7.6153 0-9.1022-0.283-10.744-2.0447z" fill="#555"/>
        <path id="path3811" d="m382.65 651.53c-2.0837-2.3025-2.7174-12.497-0.89049-14.325 1.0134-1.014 1.7957-0.95144 4 0.32017 1.5071 0.8694 4.5402 1.9051 6.7402 2.3016 6.0887 1.0972 9.3964 3.4679 10.104 7.2422 1.0965 5.8447 0.42255 6.2952-9.418 6.2952-7.3384 0-9.164-0.31775-10.536-1.8339z" fill="#191919"/>
      </g>
    </g>
    <path id="path3944" fill="url(#linearGradient3957)" d="m402.24 647.42l0.086-11.919c61.79-42.54 386.75-274.3 407.15-290.58l181.03 97.363-59.756 337.43c-165.41-39.84-357.27-84.42-528.51-132.29z"/>
    <g id="g4078">
      <path id="path3001-8-1" fill="#555" d="m783.37 605.11c7.8983-70.683 31.143-320.64 31.388-323.69 3.1602 1.5678 126.63 46.146 188.92 71.085 0.746 1.9442-80.793 485.84-81.93 486.22l-138.4-233.61z"/>
      <g id="g4057">
        <path id="rect6724-7" style="color:#000000" d="m932.08 779.94l-145.57-205.62s22.278-228.63 22.278-228.63l180.8 95.645-57.508 338.6z" fill-rule="evenodd" fill-opacity=".50196" fill="#fff"/>
        <g id="g3935" opacity=".5" transform="translate(-87.329 46.178)">
          <path id="path6624-4" stroke="#000" stroke-width="2.7372" fill="none" d="m935.07 526.73l-6.3551 33.905"/>
          <path id="path6632-0" stroke="#000" stroke-width="2.5" fill="none" d="m956 547.73c4.1473 48.742 4.1473 48.742 4.1473 48.742"/>
          <g id="g3859">
            <g id="g3845">
              <path id="path3831" d="m934.19 526.46c-3.8874-5.3492-7.5843-11.413-10.859-17.775-1.5705-3.0507-2.6141-5.2708-4.0742-8.6627-2.6375-6.1273-5.0501-13.276-6.4588-19.1-0.52907-2.1875-0.57828-2.4205-1.1591-5.485-0.92698-4.8914-1.323-10.313-1.065-14.548 0.14693-2.412 3.1441-30.502 3.4966-32.759 1.5186-9.7225 6.7173-15.207 14.533-14.926 1.7247 0.062 3.4731 0.40933 5.6857 1.1348 3.153 1.0338 6.1611 2.6356 9.9644 5.3268 1.7378 1.2297 2.2242 1.6298 4.9576 4.0815 2.7834 2.4966 3.2785 2.9775 5.0635 4.9216 5.1086 5.5641 9.3831 11.313 13.574 18.31 1.9988 3.3375 3.5146 6.151 5.3238 9.8872 4.4716 9.2347 7.6565 18.741 9.2099 27.6 0.88129 5.0262 1.2184 10.398 0.89884 14.347-0.19166 2.3683-4.9355 37.665-5.3276 39.654-0.40727 2.0657-1.2507 4.417-2.1864 6.1008-1.92 3.455-4.9689 5.533-8.5236 5.8612-2.231 0.20599-3.0482 0.11769-5.6553-0.60359-4.5419-1.2566-10.103-4.7624-15.438-9.6576-3.5287-3.2383-8.5077-8.958-11.96-13.709l-0.00001-0.00001"/>
              <path id="path4042-9" d="m939.71 532.53c2.1643 2.4956 4.1021 4.587 4.8714 5.255l0.20015 0.17379 1.8825-15.411 1.9038-15.585-0.13629-0.15334c-0.0749-0.0845-0.34586-0.33357-0.60176-0.5537-0.2555-0.21979-1.3299-1.2334-2.3816-2.2468-1.7535-1.6896-2.1376-2.1075-5.1098-5.5562-2.9058-3.3714-3.2843-3.8388-4.8465-5.979-3.0646-4.1987-5.9924-8.7738-8.3801-13.079-0.6064-1.0934-1.1446-2.035-1.1983-2.0965-0.0947-0.10853-0.14484 0.30794-1.7423 14.476l-1.6278 14.437 1.2961 2.4928c4.6238 8.893 10.162 17.243 15.871 23.826v0.00002" fill="#fc0"/>
              <path id="path4040-4" d="m948.37 541.18c4.8162 4.1013 10.238 7.0893 14.577 7.9688l0.6411 0.12993 2.1259-16.056c1.1802-8.9135 2.1418-16.291 2.1298-16.34-0.012-0.0491-0.91379-0.26863-1.9978-0.48663-2.4622-0.49518-4.5376-1.2095-6.833-2.3448-2.863-1.416-5.1408-2.9113-9.2362-6.0503l-0.20624-0.15808-1.9141 15.619-1.8927 15.444 0.54146 0.48813c0.29858 0.26918 1.2263 1.0714 2.0651 1.7857l-0.00001-0.00001" fill="#008000"/>
              <path id="path4038-8" d="m923.45 490.24l1.6279-14.611s-0.16882-0.3206-0.16882-0.3206c-0.51542-0.97881-1.7967-3.6708-2.5801-5.4199-3.335-7.4458-5.9349-15.397-7.314-22.299l-0.36507-1.827-1.4947 13.769-1.4802 13.634 0.0761 0.54031c0.16145 1.1468 0.97965 5.1522 1.4602 7.1463 1.2976 5.3849 3.633 12.403 5.9437 17.83 0.65169 1.5305 2.5692 5.8524 2.6464 5.9644 0.0207 0.03 0.76056-6.4347 1.6488-14.407" fill="#f60"/>
              <path id="path4036-8" d="m965.2 549.35c0.20269 0.0132 0.96079-0.0345 1.6872-0.10622 3.4723-0.34277 6.5395-2.4628 8.3914-5.8505 0.87542-1.6013 1.6646-3.8359 2.0638-5.8484 0.18003-0.9077 0.93342-6.3113 2.1694-15.562 1.5768-11.801 1.8834-14.236 1.7454-13.863-0.35471 0.95862-1.7524 3.2423-2.598 4.2474-1.1983 1.4245-2.6822 2.5544-4.277 3.2631-1.2907 0.5735-3.6801 1.1568-4.8272 1.182l-0.56945 0.0125-2.1195 16.309c-1.1551 8.8881-2.081 16.134-2.0643 16.155 0.0167 0.0205 0.19586 0.048 0.3983 0.0612" fill="#7b0020"/>
              <path id="path4034-2" d="m914.08 442.14c-0.0897-0.67332-0.23329-2.1444-0.31904-3.2689l-0.15576-2.0426-1.267 11.857c-0.81425 7.6195-1.2802 12.163-1.3229 12.906-0.10144 1.7641-0.0574 4.0216 0.12892 6.6013l0.16398 2.2705 1.4606-13.483 1.4748-13.614-0.16329-1.2253s-0.00036-0.00038-0.00036-0.00038" fill="#004383"/>
              <path id="path4032-4" d="m944.85 502.24c2.4533 2.4078 3.667 3.5061 3.6566 3.3065-0.0326-0.62508-4.1064-42.451-4.1407-42.516-0.035-0.0667-17.23 12.55-17.96 13.173l-0.21826 0.1862 1.321 2.3922c4.8551 8.792 11.224 17.454 17.342 23.458" fill="#fc0"/>
              <path id="path4030-5" d="m952.04 508.47c5.1938 3.8246 9.8941 5.923 14.751 6.5178 0.3868 0.0474 0.70875 0.049 0.71464 0.003 0.0106-0.0819-22.004-50.678-22.037-50.656-0.01 0.006 0.89437 9.4107 2.0162 20.975l2.061 21.247 0.31575 0.27008c0.17393 0.14877 1.1517 0.88574 2.1786 1.6419" fill="#008000"/>
              <path id="path4028-5" d="m934.23 468.48c5.0093-3.7482 9.2244-6.9282 9.2179-6.9555-0.0105-0.0447-27.87-16.768-28.152-16.903l-0.1188-0.0566 0.1053 0.62913c0.26826 1.6028 0.9317 4.7346 1.4019 6.6162 1.447 5.7903 3.7397 12.294 6.4546 18.271 1.0291 2.2657 2.1772 4.6626 2.32 4.8424 0.0327 0.0412 3.9186-2.8127 8.7714-6.4438" fill="#f60"/>
              <path id="path4026-1" d="m969.04 515.01c1.1835-0.0742 3.4414-0.66199 4.4887-1.1716 4.0116-1.9521 6.6514-5.9363 7.9096-12.03 0.35691-1.7286 0.39614-2.024 0.54149-4.0783 0.51115-7.2264-0.62552-15.483-3.3637-24.541-0.44036-1.4566-0.82299-2.6678-0.85134-2.695-0.0848-0.0811-32.064-7.9285-32.125-7.8886-0.054 0.0354 22.618 52.119 22.785 52.332 0.0453 0.0578 0.32179 0.0901 0.61486 0.0717" fill="#7b0020"/>
              <path id="path4024-7" d="m929.74 452.08l14.556 8.6633 2.1439-18.071 2.1715-18.304-1.2555-1.0488c-9.742-8.1382-19.01-10.679-24.967-7.2682-5.3017 3.0351-8.0527 10.016-7.9324 19.856 0.0229 1.8735 0.19954 4.5622 0.41755 6.3537l0.12674 1.0415 0.72606 0.43473c0.4009 0.24004 6.5605 3.9072 14.013 8.3427" fill="#004383"/>
              <path id="path4020-1" d="m960.64 464.84c8.8563 2.1351 16.465 3.916 16.473 3.8529 0.0275-0.21062-1.1523-3.31-2.3189-6.0937-5.8492-13.957-14.619-27.113-23.722-35.941l-1.4375-1.3941-2.1464 18.032-2.1195 17.806 0.14192 0.0629c0.0781 0.0346 6.7169 1.6481 15.129 3.676" fill="#80c5f9"/>
            </g>
            <path id="path3033" d="m990.48 381.74l-1.3964-0.94906 0.77077-5.8929c0.22145-2.0006 0.17316-3.1677-0.14466-3.4991-0.29525-0.19267-0.59207-0.0318-0.89044 0.48169-0.22808 0.40411-0.38536 0.93888-0.47203 1.6044l-0.81412 6.2521-1.3739-0.93376 1.4376-11.084 1.3847 0.89481-0.15803 1.2136c0.41464-0.79403 0.80496-1.0891 1.1708-0.88364 0.80811 0.52152 1.2624 1.3648 1.3602 2.5285 0.004 0.0337 0.007 0.0671 0.0113 0.1003 0.54365-0.81076 1.2021-0.9679 1.9767-0.46805 0.86074 0.55548 1.2511 1.9257 1.1681 4.1082-0.0309 0.73045-0.11104 1.5846-0.24047 2.5619l-0.79482 6.0011-1.4194-0.96471 0.78319-5.9372c0.22501-2.0159 0.17586-3.1929-0.14721-3.5288-0.29989-0.1957-0.60158-0.0351-0.90506 0.48087-0.23181 0.4062-0.39165 0.94451-0.4797 1.6151l-0.82719 6.2989m-5.4645-15.689l1.3652 0.88225-1.4282 11.05s-1.3547-0.9207-1.3547-0.9207l0.14021-1.0891c-0.26473 0.48865-0.54309 0.75467-0.83502 0.79857-0.10856 0.002-0.20899-0.0285-0.30132-0.0913-1.4214-0.96722-1.8998-3.2348-1.443-6.8152l0.74339-5.8264 1.3412 0.86675-0.74347 5.8045c-0.14819 1.157-0.12583 2.1248 0.0672 2.9048 0.085 0.35966 0.20206 0.58978 0.35134 0.69027 0.39157 0.26361 0.72458 0.025 0.99871-0.717 0.13261-0.36709 0.23232-0.8098 0.29904-1.3281l0.79941-6.2093m-6.9982 2.3556c-0.75189-1.0966-1.1864-2.1146-1.3059-3.0571-0.0512-0.42066-0.05-0.84398 0.004-1.2702 0.17997-1.4305 0.61194-2.2297 1.2978-2.3971 0.32558-0.0883 0.67603-0.0115 1.0515 0.23083 0.6412 0.41384 1.0795 1.2525 1.3133 2.5161 0.10306 0.56367 0.14115 1.1302 0.11423 1.6993l-1.2819-0.36725c-0.0151-0.77418-0.15846-1.2798-0.42963-1.5167-0.33997-0.22184-0.55757-0.0724-0.65325 0.44783-0.0174 0.078-0.0313 0.15844-0.0418 0.24138-0.0418 0.33092 0.0599 0.74136 0.30549 1.2319 0.0624 0.10091 0.11876 0.1903 0.16901 0.26816 1.1534 1.5559 1.635 3.107 1.4394 4.6444-0.22361 1.7573-0.7663 2.598-1.6251 2.5237-0.25298-0.0224-0.528-0.13477-0.82495-0.33685-0.87402-0.59482-1.3909-1.7195-1.5539-3.3749-0.0338-0.37946-0.0471-0.7746-0.04-1.1854 0 0 1.2097 0.40868 1.2097 0.40868-0.025 0.9074 0.19672 1.5188 0.66599 1.8348 0.45677 0.3076 0.7363 0.0618 0.83772-0.73835 0.0489-0.38613-0.0835-0.8562-0.39694-1.4094-0.0865-0.14752-0.1713-0.27877-0.25428-0.39376m-6.9012 5.0068l-1.252-0.86852 1.8671-15.079 1.2654 0.81773-0.0812 0.65362c0.38724-0.36772 0.78106-0.43028 1.1815-0.18664 0.69119 0.4462 1.164 1.4849 1.4166 3.1166 0.20352 1.32 0.2142 2.7072 0.032 4.1592-0.24731 1.9706-0.71045 3.2518-1.3877 3.844-0.46873 0.40572-0.99548 0.40887-1.5797 0.0113-0.32161-0.21887-0.59558-0.75778-0.82211-1.6162l-0.63981 5.1476m3.1606-8.4506c0.1519-1.215 0.12486-2.2601-0.081-3.1338-0.0945-0.41656-0.21272-0.67108-0.35458-0.76368-0.32392-0.21141-0.6391-0.0784-0.94559 0.39823-0.28255 0.46199-0.48361 1.1752-0.60347 2.1396-0.21752 1.7503-0.10984 2.9828 0.32367 3.7005 0.0836 0.14473 0.17581 0.25105 0.27665 0.31896 0.30923 0.20823 0.60516 0.002 0.88773-0.62038 0.22187-0.4864 0.38746-1.1662 0.49662-2.0394m-6.4209 1.4006l1.7634-14.351s1.2997 0.82438 1.2997 0.82438l-1.7765 14.401s-1.2866-0.87447-1.2866-0.87447m-6.6702-4.5334l-1.1809-0.8026 0.65454-5.456c0.18814-1.85 0.14776-2.9206-0.12096-3.21-0.24972-0.16296-0.50094-0.0008-0.75365 0.48574-0.19321 0.38261-0.32655 0.88199-0.40018 1.4983l-0.69182 5.7902-1.1634-0.7907 1.2222-10.267 1.1718 0.75726-0.13424 1.1235c0.35121-0.74989 0.68159-1.0398 0.991-0.86825 0.68325 0.44094 1.067 1.1943 1.1492 2.2591 0.003 0.0308 0.006 0.0613 0.009 0.0916 0.45987-0.77114 1.0164-0.94705 1.6705-0.52492 0.72665 0.46895 1.0557 1.7086 0.9847 3.717-0.0263 0.67235-0.0944 1.4607-0.20408 2.3647l-0.67364 5.5516s-1.1988-0.81477-1.1988-0.81477l0.66421-5.494c0.19091-1.8631 0.14987-2.942-0.12292-3.2349-0.25332-0.16531-0.50833-0.003-0.76503 0.48568-0.19611 0.38454-0.33144 0.88703-0.40616 1.5076l-0.70199 5.8304m-6.7004-11.203l1.8348 1.2098c0.0695-0.86533-0.0173-1.5741-0.26014-2.1254-0.11377-0.25631-0.25253-0.43786-0.41621-0.54469-0.37564-0.24513-0.69128-0.0254-0.94727 0.6579-0.0923 0.23212-0.16272 0.49956-0.21122 0.80235m-0.25547 2.1712c-0.0704 1.0392 0.0422 1.818 0.3383 2.3374 0.0918 0.15964 0.20107 0.2822 0.32798 0.36765 0.36263 0.24421 0.65292 0.0831 0.87045-0.48422l0.98081 1.373c-0.31222 0.91168-0.76194 1.4059-1.348 1.4837-0.26507 0.0296-0.51817-0.0378-0.75934-0.20193-0.62578-0.42588-1.0794-1.3323-1.3622-2.7186-0.25266-1.253-0.29439-2.5992-0.12538-4.041 0.19486-1.6624 0.59622-2.8585 1.2056-3.5889 0.4892-0.57544 1.0036-0.69003 1.5434-0.34162 0.64499 0.41633 1.0938 1.3449 1.3447 2.7862 0.20871 1.1908 0.2295 2.4913 0.0623 3.8994l-0.12994 1.0943-2.9486-1.9653m-1.6126-4.9831c-0.27022-0.5922-0.44674-0.91507-0.52988-0.96934-0.27864-0.18183-0.56907 0.0153-0.87123 0.5904-0.18944 0.37227-0.30793 0.7632-0.3556 1.173l-0.66878 5.7483-1.1047-0.75079 1.1621-10.023 1.1124 0.71891-0.12541 1.0779c0.3883-0.71473 0.74287-0.96943 1.0635-0.76254 0.27348 0.1765 0.53973 0.55629 0.79873 1.1399 0.0656 0.15342 0.11922 0.29915 0.16095 0.43718l-0.64213 1.6205m-7.72-2.3737c0.19687-1.7241 0.58559-2.9324 1.1676-3.6255 0.44022-0.51625 0.91068-0.61363 1.4116-0.29032 0.63551 0.41018 1.0782 1.3252 1.3266 2.7455 0.20389 1.1607 0.22639 2.4295 0.0674 3.8043-0.19998 1.7292-0.59363 2.9428-1.1795 3.6406-0.44502 0.51674-0.91709 0.60443-1.416 0.26493-0.62858-0.42778-1.0634-1.3469-1.306-2.7568-0.20292-1.1647-0.22681-2.4249-0.0718-3.7827m1.0846 0.71905c-0.10983 0.95848-0.0831 1.8517 0.0802 2.6808 0.10955 0.54907 0.26167 0.88928 0.45647 1.0205 0.29263 0.19706 0.57778-0.0741 0.8554-0.81475 0.18676-0.4892 0.31747-1.0572 0.39199-1.7038 0.11114-0.96446 0.0841-1.863-0.0811-2.6946-0.11208-0.53716-0.26321-0.86767-0.45328-0.99171-0.27618-0.18022-0.55526 0.073-0.83723 0.75844-0.1998 0.50722-0.33723 1.0889-0.41243 1.7451m-5.0441-12.342l1.0912 0.69219-1.2524 11.103 3.1328 2.1058-0.25037 2.1974-4.2092-2.8608 1.4879-13.238m21.476 297.03c-0.0446 0.33524 0.0004 0.64879 0.13512 0.94089 0.0215 0.0423 0.046 0.0836 0.0732 0.12402 0.15878 0.23512 0.27255 0.21807 0.3412-0.0514 0.0115-0.045 0.0212-0.0975 0.0292-0.1577 0.0402-0.30137 0.009-0.59973-0.093-0.89489-0.0318-0.0881-0.0681-0.16228-0.10899-0.22265-0.11807-0.17428-0.22146-0.17251-0.31019 0.005-0.0307 0.0679-0.053 0.15347-0.0667 0.25658l-0.00001-0.00001m-0.71241-1.0533c0.0877-0.66093 0.29114-0.99251 0.61061-0.99449 0.21569 0.009 0.43488 0.17668 0.65761 0.50441 0.33226 0.48893 0.56669 1.1437 0.70287 1.964 0.0898 0.55569 0.1047 1.058 0.0447 1.5065-0.0876 0.65515-0.29123 0.9727-0.61055 0.95294-0.21641-0.0121-0.43572-0.1833-0.65792-0.51336-0.33973-0.50464-0.57454-1.1616-0.70489-1.9712-0.0864-0.52848-0.10057-1.0113-0.0425-1.4489m-0.78453-6.4444c-0.0442 0.33466 0.00045 0.64585 0.13409 0.93381 0.0213 0.0412 0.0454 0.0815 0.0724 0.12114 0.15749 0.23073 0.27022 0.21138 0.33809-0.0583 0.0114-0.045 0.021-0.0975 0.029-0.15761 0.0398-0.30085 0.009-0.59713-0.0921-0.88866-0.0315-0.087-0.0675-0.16001-0.108-0.21921-0.11701-0.17085-0.21947-0.16681-0.30741 0.012-0.0305 0.0683-0.0525 0.15393-0.0661 0.25685v-0.00001m-0.70602-1.0327c0.087-0.65978 0.28865-0.99433 0.60544-1.0034 0.20919-0.002 0.42633 0.15999 0.65144 0.48767 0.33382 0.48595 0.56843 1.1357 0.70341 1.9489 0.0889 0.5514 0.10369 1.0511 0.0443 1.4989-0.0868 0.65403-0.29093 0.97126-0.61194 0.95196-0.20993-0.00057-0.42728-0.16615-0.65201-0.49643-0.33668-0.49477-0.56931-1.1434-0.69834-1.9461-0.0846-0.53293-0.0987-1.0133-0.0423-1.4415m0.49125 7.8879l-0.69004-1.0391s3.2357-4.4019 3.2357-4.4019 0.66908 0.98987 0.66908 0.98987-3.2147 4.4512-3.2147 4.4512m-3.3383-11.764c-0.0744 0.56994-0.0255 1.1381 0.14673 1.7051 0.0846 0.27617 0.19302 0.51136 0.32525 0.70556 0.26476 0.38888 0.48771 0.41663 0.66868 0.0825 0.0712-0.13988 0.12244-0.32921 0.15376-0.56799 0.075-0.572 0.0207-1.1448-0.16284-1.7177-0.0829-0.25301-0.18175-0.46334-0.29668-0.63099-0.27366-0.39916-0.4999-0.43498-0.6789-0.10821-0.0751 0.1333-0.12712 0.31053-0.156 0.53172m0.56596 4.2237s-0.31077-0.3364-0.31077-0.3364c-0.54085-0.79732-0.90099-1.7833-1.0816-2.9589-0.11404-0.76395-0.12575-1.4935-0.0352-2.1894 0.10055-0.7724 0.33462-1.2295 0.7028-1.3712 0.36687-0.12463 0.76445 0.12372 1.193 0.74648 0.49176 0.7147 0.8383 1.6412 1.0387 2.7789 0.15293 0.85501 0.18499 1.6209 0.0961 2.2967-0.13606 1.0344-0.39303 1.8186-0.77037 2.3523-0.0323 0.044-0.055 0.0766-0.0683 0.0977 0 0-1.4183 2.1332-1.4183 2.1332l-0.59604-1.812 1.25-1.7374m8.071-3.1826l0.87688 1.2534s1.2542-9.3426 1.2542-9.3426l-0.8832-1.2336-0.38406 2.8693c-0.10547-0.57516-0.27195-1.0432-0.49926-1.4042-0.0452-0.074-0.098-0.15336-0.15824-0.23799-0.47191-0.66289-0.90854-0.75777-1.3102-0.28685-0.3235 0.38211-0.5469 1.0386-0.67059 1.9696-0.16636 1.252-0.10286 2.4533 0.19076 3.6061 0.20481 0.7997 0.50721 1.4858 0.9077 2.0585 0.22144 0.31668 0.46659 0.41796 0.73553 0.3034l-0.0596 0.44493m-0.88237-5.3036c0.1034-0.77598 0.28223-1.2542 0.53672-1.4345 0.12614-0.0815 0.23779-0.0539 0.33493 0.0831 0.21763 0.30682 0.37614 0.76947 0.47537 1.3879 0.10057 0.6105 0.10812 1.2353 0.0226 1.8739-0.15098 1.1278-0.41019 1.5804-0.77716 1.359-0.0716-0.0396-0.14201-0.10872-0.21131-0.20747-0.2121-0.30222-0.3506-0.78474-0.41566-1.4476-0.0513-0.51858-0.0399-1.0566 0.0345-1.6144m-3.4152-5.7332s1.3726 1.9419 1.3726 1.9419c0.0519-0.59632-0.013-1.167-0.19452-1.7116-0.085-0.25375-0.18877-0.4669-0.31115-0.63946-0.28098-0.39615-0.51719-0.41594-0.7088-0.0602-0.0691 0.11781-0.12183 0.27423-0.15813 0.46929m-0.19122 1.452c-0.0527 0.72488 0.0318 1.3628 0.25367 1.9146 0.0687 0.16997 0.15061 0.32265 0.24563 0.45804 0.27142 0.38675 0.48853 0.43389 0.65114 0.14074l0.73274 1.5682c-0.23301 0.49242-0.56892 0.59995-1.0071 0.32364-0.19831-0.12917-0.38776-0.32294-0.56836-0.58121-0.46894-0.67061-0.80919-1.5975-1.0215-2.7809-0.1898-1.0684-0.22127-2.0846-0.0945-3.0502 0.14612-1.1129 0.44715-1.7628 0.90391-1.9493 0.36636-0.14158 0.7513 0.0705 1.155 0.63757 0.48187 0.67692 0.81689 1.6169 1.0042 2.8196 0.15571 0.99403 0.17132 1.9611 0.0468 2.8999l-0.0968 0.72975-2.2047-3.1305m-4.8563-6.4714l0.86296 0.6189c0.0707 0.86019 0.17145 1.4899 0.30231 1.8891 0.10334 0.32979 0.24554 0.6237 0.42671 0.88179 0.37602 0.53569 0.64787 0.60766 0.81501 0.21471 0.0457-0.10844 0.0792-0.24417 0.10045-0.40718 0.0763-0.58408-0.0786-1.3534-0.464-2.3061-0.0874-0.2152-0.18473-0.43415-0.29196-0.65684-0.74643-1.5321-1.1177-2.8819-1.1163-4.0545 0.001-0.2107 0.0142-0.41025 0.0386-0.5987 0.12657-0.97656 0.44831-1.3721 0.96637-1.1856 0.29335 0.1153 0.60875 0.40828 0.94632 0.87951 0.73497 1.026 1.1768 2.3375 1.3232 3.9323l-0.92895-0.7211c-0.074-0.64419-0.25125-1.1831-0.53137-1.6164-0.0221-0.0309-0.0465-0.0651-0.0732-0.10255-0.45665-0.6399-0.72859-0.62001-0.81673 0.0581-0.0681 0.52354 0.13076 1.3059 0.59742 2.3496 0.0332 0.0673 0.0825 0.17252 0.14802 0.31575 0.56842 1.2906 0.92215 2.3816 1.0598 3.2702 0.0944 0.61342 0.10715 1.1829 0.0383 1.7081-0.12402 0.94635-0.42376 1.3966-0.89828 1.3513-0.34236-0.0413-0.7125-0.34675-1.1102-0.91553-0.80146-1.1461-1.2654-2.7802-1.3945-4.9049m-28.39-17.14c-0.0362 0.30624 0 0.58241 0.10867 0.82869 0.0174 0.0354 0.0371 0.0696 0.0591 0.10266 0.12812 0.19225 0.22 0.16346 0.27558-0.0865 0.009-0.0417 0.0172-0.0901 0.0237-0.14502 0.0326-0.27527 0.008-0.53941-0.0746-0.79227-0.0256-0.0753-0.0549-0.13763-0.0879-0.187-0.0953-0.1425-0.17878-0.1287-0.25054 0.0413-0.0249 0.0646-0.0429 0.14404-0.054 0.23823v-0.00001m-0.57509-0.86161c0.0712-0.60382 0.23576-0.9255 0.49388-0.96487 0.17423-0.0176 0.35119 0.10745 0.53089 0.37542 0.26804 0.39971 0.45697 0.9597 0.56649 1.6798 0.0722 0.48806 0.084 0.93704 0.0354 1.3467-0.071 0.59833-0.23558 0.90753-0.49339 0.92777-0.17475 0.0149-0.35179-0.11273-0.5311-0.38261-0.2742-0.41271-0.46361-0.97472-0.56853-1.6862-0.0696-0.46433-0.0808-0.89626-0.0336-1.296m-0.63095-5.6956c-0.0359 0.30574 0.00004 0.58005 0.10795 0.82312 0.0172 0.0345 0.0367 0.0679 0.0585 0.10035 0.1272 0.18886 0.21833 0.15834 0.27333-0.0917 0.009-0.0418 0.0171-0.0901 0.0235-0.14492 0.0323-0.2748 0.008-0.53729-0.074-0.78733-0.0254-0.0744-0.0545-0.13586-0.0872-0.18431-0.0945-0.13986-0.17734-0.12433-0.24853 0.0465-0.0247 0.0649-0.0425 0.14436-0.0536 0.23838v-0.00001m-0.57045-0.84564c0.0707-0.60282 0.23395-0.92671 0.49014-0.97153 0.16914-0.0264 0.3446 0.0943 0.5264 0.36256 0.26955 0.3977 0.45881 0.95388 0.56746 1.6684 0.0716 0.48471 0.0832 0.93166 0.035 1.3406-0.0705 0.59735-0.23555 0.90606-0.49496 0.92628-0.16968 0.0241-0.34529-0.0992-0.52681-0.36957-0.27199-0.40508-0.45981-0.96057-0.56377-1.6666-0.0682-0.46892-0.0793-0.89888-0.0335-1.2901m0.39337 7.0282s-0.5576-0.85203-0.5576-0.85203 2.6173-4.3321 2.6173-4.3321l0.53962 0.81035-2.5993 4.3738m-2.7225-10.495l-0.572-1.3119c0.14838-0.56314 0.38194-0.83747 0.70108-0.82255 0.217 0.00081 0.4274 0.15113 0.63116 0.45125 0.30791 0.45354 0.54597 1.0972 0.71385 1.9308 0.18602 0.93448 0.22289 1.8829 0.1105 2.8439-0.063 0.53849-0.33475 1.0957-0.81418 1.6703 0.0207-0.0333-0.0521 0.05-0.21805 0.24951l-0.56785 0.55888 1.2329 1.8508-0.15985 1.3661s-2.5217-3.7991-2.5217-3.7991l1.6301-1.6223c0.27848-0.34222 0.45469-0.57759 0.52825-0.70568 0.11244-0.20739 0.17959-0.4046 0.2014-0.59155 0.0882-0.75636 0.0547-1.4052-0.10055-1.9456-0.0544-0.18112-0.11912-0.32715-0.19416-0.43808-0.24275-0.35885-0.443-0.25351-0.60094 0.31515m-2.6998-4.3138l-0.40822 0.19398-0.31391-1.7368 0.94862-0.31826 0.67872 1.0003-0.94981 8.234-0.685-1.032 0.7296-6.3413m18.151 16.806l0.74579 1.0807 1.0705-8.7157-0.75074-1.0634-0.3279 2.6766c-0.0895-0.52132-0.23101-0.93888-0.42432-1.2526-0.0385-0.0644-0.0833-0.13321-0.13458-0.2062-0.40146-0.57181-0.77317-0.62295-1.1154-0.15526-0.27568 0.37935-0.46624 1.0035-0.57197 1.8724-0.14222 1.1687-0.0886 2.2713 0.16109 3.3097 0.17415 0.72016 0.43142 1.3272 0.77224 1.8213 0.18843 0.27317 0.39709 0.34571 0.62608 0.21724l-0.0509 0.41523m-0.74916-4.8153c0.0883-0.7242 0.24081-1.1801 0.45756-1.3676 0.10742-0.0857 0.20246-0.0696 0.28509 0.0485 0.18513 0.26464 0.31986 0.67786 0.40407 1.2396 0.0853 0.5543 0.0915 1.1296 0.0185 1.7255-0.12893 1.0524-0.34974 1.4916-0.66203 1.3185-0.0609-0.0304-0.12087-0.0882-0.17983-0.17339-0.18048-0.26072-0.29822-0.69392-0.35337-1.2997-0.0435-0.47385-0.0335-0.97092 0.03-1.4915m-3.7829-5.4646c0.13285-1.1037 0.39476-1.7499 0.78637-1.9383 0.29595-0.13679 0.61189 0.0337 0.94795 0.51236 0.42586 0.60661 0.72215 1.4665 0.88813 2.5793 0.13621 0.90948 0.15109 1.8029 0.0446 2.6793-0.13399 1.1026-0.39762 1.7505-0.79022 1.9439-0.29848 0.13783-0.61532-0.0366-0.9504-0.5224-0.42267-0.61276-0.71526-1.4719-0.87851-2.5777-0.13661-0.91514-0.15257-1.807-0.0479-2.6765m0.73007 1.0492c-0.074 0.61305-0.0561 1.2494 0.0536 1.9096 0.0736 0.43779 0.17579 0.75124 0.30666 0.94029 0.19651 0.28387 0.38795 0.23771 0.57429-0.1391 0.1253-0.24709 0.213-0.57704 0.26303-0.98981 0.0746-0.61556 0.0566-1.2546-0.054-1.9165-0.0751-0.43042-0.17637-0.73673-0.30384-0.91898-0.18532-0.26491-0.37274-0.22942-0.56225 0.10595-0.13435 0.25274-0.22681 0.58892-0.27746 1.0086m-3.21-0.93009l-0.70939-1.028 0.39522-3.3171c0.1136-1.1382 0.0897-1.8607-0.0717-2.1665-0.15008-0.21455-0.30124-0.21553-0.45347-0.003-0.11644 0.16938-0.19691 0.44153-0.24145 0.81646l-0.41882 3.5253-0.70247-1.0179 0.7413-6.2557 0.70581 1.0058-0.0811 0.68295c0.21157-0.34313 0.41032-0.39188 0.59621-0.14567 0.41003 0.58404 0.63993 1.2445 0.68888 1.9803 0.002 0.0216 0.004 0.043 0.006 0.0644 0.27572-0.31054 0.6088-0.18822 0.99962 0.36845 0.43353 0.61752 0.62929 1.5708 0.58635 2.8584-0.0159 0.43001-0.0567 0.91853-0.12242 1.4654l-0.40372 3.3613-0.71643-1.0382 0.39903-3.3308c0.11469-1.1431 0.0905-1.8693-0.0725-2.1778-0.15145-0.21651-0.30409-0.21856-0.45794-0.006-0.11758 0.16939-0.19883 0.44233-0.2438 0.81882l-0.42286 3.5399m-3.5476-8.1559c-0.39956-0.9448-0.63059-1.7298-0.69386-2.3568-0.0271-0.27912-0.0263-0.54126 0.003-0.78651 0.0966-0.82295 0.32711-1.1642 0.6921-1.023 0.17309 0.0615 0.35918 0.23396 0.55833 0.51762 0.33971 0.48389 0.57137 1.1577 0.69449 2.0211 0.0542 0.38457 0.0741 0.74793 0.0596 1.09 0 0-0.67867-0.67897-0.67867-0.67897-0.008-0.48422-0.0834-0.84773-0.22721-1.0904-0.18042-0.25791-0.2961-0.24262-0.3472 0.0456-0.009 0.0421-0.0167 0.087-0.0224 0.13465-0.0224 0.19012 0.0315 0.48035 0.16176 0.87095 0.0331 0.0845 0.063 0.15978 0.0896 0.22572 0.61097 1.3688 0.86523 2.4962 0.76096 3.3779-0.11925 1.0082-0.40724 1.3391-0.86302 0.99412-0.13442-0.10208-0.28059-0.26762-0.43848-0.49651-0.46531-0.67457-0.74056-1.5537-0.82679-2.6386-0.0179-0.24744-0.0248-0.49741-0.0208-0.74993 0 0 0.64498 0.68064 0.64498 0.68064-0.0137 0.5537 0.10404 1.0106 0.35361 1.3711 0.24268 0.35057 0.39128 0.29629 0.44551-0.16338 0.0262-0.2218-0.0439-0.55921-0.21016-1.0118-0.0459-0.1218-0.0909-0.23292-0.13497-0.33337m-1.757-6.7682l0.68825 0.98076-0.72644 6.2012s-0.68503-0.99266-0.68503-0.99266l0.0716-0.61299c-0.13442 0.20973-0.27572 0.28054-0.42387 0.21261-0.0551-0.034-0.10609-0.0849-0.15295-0.15283-0.72258-1.0475-0.96531-2.5787-0.73054-4.5996l0.38156-3.2844 0.68087 0.97024-0.38049 3.267c-0.0759 0.65178-0.0651 1.245 0.0326 1.7801 0.043 0.24536 0.1023 0.42274 0.17803 0.53212 0.19852 0.28676 0.36747 0.2507 0.50674-0.10871 0.0673-0.1787 0.11805-0.41374 0.1521-0.70513l0.40755-3.4878m-2.7776-5.696c0.0417-0.36041 0.13851-0.53332 0.29066-0.51866 0.0662 0.002 0.13335 0.0517 0.20136 0.14797 0.1467 0.20768 0.23998 0.51803 0.27974 0.93097 0.0195 0.1923 0.0197 0.37091 0.00057 0.53579-0.041 0.35345-0.13821 0.52608-0.2916 0.51795-0.0699-0.008-0.13696-0.0577-0.20119-0.14906-0.14647-0.20838-0.23943-0.51855-0.27898-0.93056-0.0194-0.19176-0.0196-0.36988-0.00056-0.5344m-0.12436 1.5606l0.67501 0.96189-0.71285 6.1508-0.67187-0.97361 0.70971-6.139m-3.0664-6.901l2.6623 3.7709-0.15833 1.3729-1.9728-2.8049-0.22812 1.9926s1.8582 2.6566 1.8582 2.6566l-0.15782 1.369-1.8563-2.6638-0.25151 2.1968s1.9645 2.8362 1.9645 2.8362l-0.15752 1.3659s-2.6456-3.8338-2.6456-3.8338l0.94304-8.2584m-4.9668-1.0597c0.11762-1.047 0.34899-1.6749 0.69466-1.8834 0.26118-0.15234 0.53988-0.0179 0.8362 0.40419 0.37545 0.53479 0.63649 1.3177 0.78251 2.3485 0.11982 0.84231 0.13265 1.6794 0.0385 2.5105-0.11851 1.0456-0.3512 1.6753-0.69754 1.8891-0.26334 0.15393-0.54282 0.0163-0.83832-0.41214-0.3728-0.54046-0.63077-1.323-0.77452-2.3478-0.12031-0.84802-0.13411-1.684-0.0415-2.5089m0.64404 0.9255c-0.0655 0.58151-0.0499 1.1774 0.0467 1.7882 0.0648 0.40493 0.15489 0.69078 0.2703 0.85751 0.1733 0.25034 0.34221 0.19131 0.50672-0.17762 0.1106-0.24216 0.18806-0.559 0.23232-0.95048 0.066-0.58378 0.0503-1.182-0.047-1.7942-0.0661-0.39785-0.15534-0.6771-0.26774-0.83779-0.16341-0.23359-0.32877-0.18506-0.49609 0.14512-0.11863 0.24817-0.20033 0.57126-0.24515 0.96935m-1.6193-3.72c0.10489-0.93768 0.0723-1.8111-0.0977-2.6191-0.10312-0.5003-0.24496-0.87872-0.42541-1.1353l-0.48487-0.68939-0.60463 5.4319s0.48289 0.69716 0.48289 0.69716c0.27626 0.39884 0.52696 0.37254 0.75196-0.08 0.16996-0.33863 0.29591-0.87373 0.37775-1.6053m0.69531 0.99584c-0.1447 1.2901-0.41983 2.1074-0.82465 2.4521-0.35334 0.3105-0.73636 0.16599-1.1488-0.43168l-1.1315-1.6397 0.8973-8.0811 1.1384 1.6125c0.4653 0.65907 0.7947 1.6082 0.98725 2.8471 0.17374 1.0979 0.2011 2.1787 0.082 3.2407m-10.298-44.861c-0.0311 0.29177-0.00022 0.53767 0.0927 0.73784 0.0149 0.0283 0.0317 0.055 0.0506 0.08 0.10961 0.14542 0.18828 0.0958 0.23595-0.14883 0.008-0.0408 0.0148-0.0874 0.0203-0.1398 0.028-0.26224 0.007-0.49984-0.0636-0.71267-0.0219-0.0631-0.047-0.11333-0.0752-0.15065-0.0815-0.10774-0.153-0.0741-0.21451 0.10072-0.0213 0.0659-0.0367 0.14368-0.0463 0.23342v-0.00001m-0.49214-0.65174c0.0612-0.57531 0.20225-0.91339 0.42329-1.0142 0.14918-0.0597 0.30063 0.0115 0.45437 0.21406 0.22928 0.30204 0.39076 0.77173 0.48421 1.409 0.0616 0.43241 0.0715 0.84383 0.0298 1.234-0.061 0.57-0.20195 0.89659-0.42262 0.97984-0.14959 0.0575-0.3011-0.0159-0.45451-0.22015-0.23463-0.31234-0.39661-0.78379-0.4862-1.4144-0.0594-0.41132-0.0688-0.80733-0.0283-1.1882m-0.53831-5.102c-0.0309 0.29128-0.00018 0.53565 0.0922 0.73327 0.0147 0.0276 0.0314 0.0536 0.0501 0.0781 0.10889 0.14274 0.18697 0.0919 0.23417-0.15273 0.008-0.0408 0.0146-0.0874 0.0202-0.13966 0.0278-0.26179 0.007-0.49803-0.0631-0.7086-0.0217-0.0624-0.0466-0.11192-0.0746-0.14853-0.0809-0.10565-0.15187-0.0707-0.21292 0.1047-0.0212 0.0661-0.0365 0.14388-0.046 0.23345v-0.00001m-0.48847-0.63918c0.0608-0.57431 0.20083-0.914 0.42035-1.019 0.14492-0.0664 0.29518 0.002 0.4508 0.20412 0.23071 0.30029 0.39257 0.7668 0.48534 1.3995 0.0611 0.42971 0.0709 0.83944 0.0295 1.229-0.0606 0.56904-0.20205 0.89517-0.42422 0.97847-0.14534 0.0645-0.29572-0.006-0.45113-0.21002-0.23288-0.30633-0.3936-0.77258-0.48242-1.3988-0.0583-0.41614-0.0677-0.81048-0.0282-1.1832m0.33443 6.3928s-0.47749-0.64749-0.47749-0.64749 2.2432-4.6525 2.2432-4.6525 0.4615 0.61372 0.4615 0.61372-2.2272 4.6862-2.2272 4.6862m-2.0377-8.9257l-0.3575 0.2787-0.27433-1.5468 0.83073-0.52357 0.59376 0.77189-0.83413 7.9146s-0.59949-0.79891-0.59949-0.79891l0.64096-6.0959m-2.6088-3.4108l-0.35081 0.28039-0.26911-1.5288 0.81519-0.52865 0.58256 0.75733-0.81887 7.8494s-0.58822-0.78388-0.58822-0.78388l0.62926-6.0458m12.386 1.8469c-0.14862-0.44868-0.24579-0.70163-0.29161-0.75917-0.15363-0.19293-0.31403-0.15037-0.48117 0.12728-0.10486 0.18155-0.17053 0.39488-0.19707 0.64004l-0.37252 3.4416s-0.61225-0.78079-0.61225-0.78079l0.64857-6.0056s0.61497 0.76948 0.61497 0.76948l-0.0697 0.64429c0.21475-0.34088 0.41052-0.40112 0.58722-0.18014 0.15062 0.18837 0.29708 0.50257 0.43937 0.94277 0.036 0.11498 0.0655 0.22176 0.0883 0.32033 0 0-0.35412 0.83995-0.35412 0.83995m-4.2888-3.6885c0.11104-1.0386 0.32925-1.6939 0.65513-1.9658 0.24622-0.2004 0.50889-0.12639 0.7881 0.22281 0.35375 0.44242 0.59962 1.1484 0.73706 2.1177 0.11278 0.79199 0.12475 1.6006 0.0359 2.425-0.11183 1.0373-0.33121 1.6945-0.65763 1.9719-0.24822 0.20254-0.5116 0.12577-0.79007-0.22954-0.35133-0.44827-0.5944-1.1544-0.72976-2.1186-0.11329-0.79761-0.12618-1.6051-0.0387-2.4234m0.60699 0.76678c-0.0618 0.57685-0.0472 1.1512 0.0437 1.7236 0.061 0.37933 0.14589 0.63813 0.25465 0.77634 0.1633 0.20752 0.32251 0.11611 0.47762-0.27474 0.10428-0.25708 0.17733-0.57981 0.2191-0.96814 0.0623-0.57909 0.0476-1.1557-0.044-1.7293-0.0622-0.3722-0.1463-0.62478-0.25221-0.75778-0.15398-0.19336-0.30985-0.1129-0.46761 0.24092-0.11186 0.26451-0.18892 0.59417-0.23123 0.98906m-3.052 2.3104s-0.5893-0.75748-0.5893-0.75748l0.88814-8.3854s0.59296 0.74194 0.59296 0.74194l-0.0385 0.36218c0.18151-0.13197 0.36575-0.0855 0.55271 0.13969 0.32227 0.40308 0.54194 1.1028 0.65854 2.0992 0.0939 0.80542 0.098 1.6098 0.0123 2.4123-0.11634 1.0897-0.33292 1.7375-0.64926 1.9437-0.21924 0.14055-0.46564 0.0361-0.73905-0.31278-0.15067-0.19225-0.2789-0.56086-0.38474-1.1057l-0.30386 2.8624m1.4862-4.263c0.0716-0.67255 0.0597-1.2835-0.0359-1.8322-0.0439-0.26096-0.0989-0.43302-0.16516-0.5162-0.1513-0.19001-0.29884-0.17854-0.44263 0.0341-0.13267 0.2093-0.22737 0.58151-0.28417 1.1166-0.10313 0.97154-0.0534 1.7095 0.14949 2.2149 0.0391 0.10107 0.0822 0.1816 0.12943 0.24157 0.14465 0.18382 0.28323 0.12437 0.41572-0.17871 0.10397-0.23661 0.18173-0.59665 0.23323-1.0801m-3.5904-1.235s-0.58042-0.7402-0.58042-0.7402l0.32523-3.0987c0.0936-1.0573 0.0743-1.7031-0.0577-1.9368-0.1228-0.15422-0.2466-0.11536-0.37139 0.1163-0.0955 0.18355-0.16151 0.45042-0.19818 0.80066l-0.34482 3.2936s-0.57529-0.73366-0.57529-0.73366l0.61053-5.8445s0.57778 0.72294 0.57778 0.72294l-0.0668 0.63786c0.17346-0.36532 0.33625-0.46149 0.48835-0.28804 0.33543 0.41949 0.5233 0.95513 0.56302 1.6063 0.002 0.019 0.003 0.0378 0.005 0.0566 0.22579-0.35271 0.49827-0.32987 0.81772 0.0696 0.35428 0.44306 0.51389 1.2515 0.47817 2.4242-0.0132 0.39205-0.0468 0.84345-0.10079 1.3541l-0.33177 3.1389-0.58561-0.74683 0.32805-3.1108c0.0944-1.0615 0.0749-1.7104-0.0583-1.9458-0.12381-0.15548-0.24871-0.11714-0.3747 0.11475-0.0963 0.18383-0.16294 0.45154-0.19992 0.80315l-0.34781 3.3064m-3.312-8.2124l0.91341 1.1515c0.035-0.50122-0.008-0.94519-0.12818-1.3316-0.0565-0.17992-0.1254-0.321-0.20682-0.42325-0.18697-0.23481-0.34445-0.17732-0.47253 0.17197-0.0462 0.11744-0.0815 0.26121-0.10588 0.43131m-0.12877 1.2418c-0.0358 0.60661 0.0201 1.0995 0.16767 1.4791 0.0457 0.11679 0.10019 0.21538 0.16345 0.29577 0.18066 0.22958 0.32536 0.19983 0.43397-0.0897l0.48682 1.0457c-0.15558 0.47365-0.37944 0.6667-0.67124 0.57966-0.13211-0.0428-0.25827-0.14088-0.37852-0.2943-0.31232-0.3985-0.53868-1.0463-0.67949-1.9434-0.12589-0.81067-0.14607-1.6285-0.0606-2.4545 0.0985-0.95195 0.3-1.5749 0.60497-1.8688 0.2445-0.22914 0.501-0.17616 0.76958 0.15974 0.32045 0.4008 0.54276 1.061 0.66645 1.9806 0.10282 0.7596 0.1124 1.5409 0.0287 2.3432l-0.065 0.62366s-1.4667-1.8566-1.4667-1.8566m-2.9847-10.039s2.6104 3.2438 2.6104 3.2438l-0.13404 1.2973-0.99659-1.2438-0.67375 6.5464s-0.57934-0.73882-0.57934-0.73882l0.67096-6.534-1.0292-1.2844 0.13156-1.2864m115 87.315c-0.058 0.39461 0 0.74225 0.1784 1.0432 0.028 0.0431 0.061 0.0843 0.096 0.12383 0.2089 0.2299 0.3584 0.18232 0.4484-0.14302 0.015-0.0543 0.028-0.11687 0.038-0.18771 0.053-0.35484 0.011-0.68865-0.123-1.0012-0.042-0.0929-0.09-0.16888-0.1435-0.22785-0.1553-0.17022-0.2911-0.1426-0.4075 0.0826-0.04 0.0854-0.069 0.18871-0.087 0.31007v-0.00001m-0.9366-1.0288c0.1146-0.77776 0.3814-1.2075 0.801-1.2891 0.2833-0.0436 0.5715 0.0942 0.8645 0.41402 0.4372 0.4772 0.7461 1.1686 0.9259 2.074 0.1186 0.61399 0.1387 1.1854 0.06 1.7137-0.1146 0.77161-0.3821 1.1853-0.8019 1.2412-0.2845 0.0394-0.5728-0.10261-0.8651-0.42563-0.4467-0.49376-0.7557-1.1875-0.9276-2.0814-0.1139-0.58316-0.1329-1.132-0.057-1.6468m-1.0356-7.1746c-0.058 0.39374 0 0.73838 0.1768 1.0342 0.028 0.0417 0.06 0.0819 0.095 0.1204 0.2069 0.22447 0.3548 0.17416 0.4436-0.15124 0.015-0.0543 0.028-0.11683 0.038-0.18752 0.052-0.35405 0.011-0.68522-0.1217-0.99327-0.041-0.0915-0.089-0.16608-0.1419-0.22361-0.1537-0.16604-0.2882-0.13571-0.4034 0.0908-0.04 0.0858-0.069 0.18917-0.087 0.31027v-0.00002m-0.9269-1.0036c0.1134-0.77602 0.3776-1.2092 0.7931-1.2992 0.2744-0.0554 0.5595 0.0757 0.8553 0.39382 0.4387 0.4719 0.7473 1.1562 0.9253 2.0527 0.1174 0.60855 0.1372 1.1766 0.06 1.7037-0.1134 0.76992-0.3812 1.1838-0.8027 1.2417-0.2755 0.0517-0.5609-0.0835-0.8561-0.40513-0.4422-0.4817-0.7479-1.1651-0.9178-2.0505-0.1114-0.588-0.1304-1.1336-0.057-1.6372m0.6515 8.8952l-0.9059-1.0172s4.2438-5.8405 4.2438-5.8405 0.8807 0.96572 0.8807 0.96572-4.2186 5.892-4.2186 5.892m-3.8752-12.802l-0.6724 0.29542-0.5205-2.1914 1.5627-0.51857 1.1223 1.2055-1.5507 10.675s-1.1307-1.2514-1.1307-1.2514l1.1893-8.2149m-5.4443-5.4948l-0.90167-1.5564c0.23222-0.72806 0.59897-1.1076 1.101-1.138 0.3415-0.0324 0.673 0.12368 0.9944 0.46863 0.4859 0.52153 0.8623 1.2924 1.1285 2.3128 0.2951 1.1444 0.3549 2.329 0.1794 3.5517-0.098 0.68502-0.526 1.4242-1.2805 2.2154 0.033-0.0447-0.082 0.0703-0.3429 0.3448l-0.8928 0.78343s1.9448 2.1419 1.9448 2.1419l-0.2495 1.7365s-3.9723-4.3963-3.9723-4.3963l2.5587-2.2714c0.4377-0.47023 0.7147-0.79149 0.8304-0.96305 0.1767-0.27679 0.2821-0.53412 0.3162-0.77181 0.1377-0.96178 0.084-1.7704-0.1619-2.4246-0.086-0.21885-0.1882-0.39211-0.3065-0.51978-0.3829-0.41289-0.6978-0.25037-0.9453 0.48623m31.378 12.909s-0.6806-0.70142-0.6806-0.70142l0.2762-1.7891 0.6815 0.69888 0.3023-1.9544 1.2522 1.2772-0.3041 1.9596s0.7478 0.76685 0.7478 0.76685l-0.2798 1.7991s-0.7468-0.76964-0.7468-0.76964l-0.6804 4.3844c-0.076 0.48976 0.064 0.92092 0.4213 1.2941l0.1888 0.19741-0.2635 1.6944s-0.1886-0.19808-0.1886-0.19808c-0.8576-0.90064-1.3433-1.8117-1.4597-2.7358-0.054-0.43902-0.037-0.94507 0.052-1.5185l0.6814-4.4052m-2.4248-6.9024c0.075-0.48849 0.2509-0.72707 0.5282-0.71558 0.1207-0.0004 0.2432 0.0625 0.3674 0.18873 0.2681 0.27241 0.4391 0.68641 0.5127 1.2419 0.036 0.25864 0.037 0.49982 0 0.72347-0.074 0.47938-0.2507 0.71746-0.5305 0.71436-0.1274-0.007-0.2498-0.0708-0.3671-0.19086-0.2674-0.27363-0.4375-0.68728-0.5107-1.2411-0.036-0.25767-0.037-0.49796 0-0.72093m-0.2223 2.1118l1.2324 1.2639s-1.2828 8.3325-1.2828 8.3325l-1.2248-1.2854 1.2752-8.311m-2.3685 4.6554c-0.067 0.44197 0.043 0.81402 0.3328 1.1166l-0.2633 1.721c-0.7379-0.77492-1.1737-1.5673-1.3094-2.3787-0.081-0.48682-0.073-1.0502 0.024-1.6906l1.3838-9.0858 1.219 1.2397-1.3874 9.0779m-5.7882-16.394s4.7741 4.8552 4.7741 4.8552l-0.2807 1.8491s-3.5393-3.6183-3.5393-3.6183l-0.4025 2.6774s3.3317 3.4322 3.3317 3.4322l-0.2795 1.8422s-3.3271-3.4453-3.3271-3.4453l-0.4434 2.9494s3.5196 3.675 3.5196 3.675l-0.2788 1.8365-4.7346-4.969 1.6605-11.084m-5.305-4.3274c0.07-0.4743 0.2343-0.71057 0.4931-0.70869 0.1126-0.004 0.2269 0.0523 0.3428 0.17007 0.2502 0.25417 0.4096 0.6483 0.4782 1.1823 0.034 0.24857 0.034 0.48145 0 0.69859-0.069 0.46542-0.2342 0.70126-0.4952 0.70762-0.119-0.003-0.2331-0.06-0.3426-0.17205-0.2496-0.25534-0.4083-0.64917-0.4764-1.1816-0.033-0.24767-0.034-0.47973 0-0.69622m-0.208 2.0471l1.1501 1.1794s-1.1988 8.091-1.1988 8.091l-1.1432-1.1997 1.1919-8.0707m-1.2689 0.43611l-1.0599 0.0754c-0.1137-0.63599-0.2251-1.075-0.3342-1.3173-0.093-0.21307-0.2108-0.39343-0.3541-0.54107-0.3462-0.35661-0.6674-0.31743-0.9635 0.11655-0.2066 0.2911-0.3537 0.73702-0.4414 1.3378-0.1398 0.957-0.068 1.8411 0.2169 2.6536 0.1439 0.42027 0.3259 0.74542 0.5459 0.9754 0.2802 0.24575 0.4958 0.2535 0.6467 0.0228 0.076-0.0972 0.1287-0.14855 0.157-0.15417l0.7813 1.9469c-0.303 0.27245-0.5457 0.41887-0.7283 0.43957-0.3393 0.0561-0.7092-0.12052-1.1096-0.52915-0.8305-0.87218-1.3712-2.0484-1.6243-3.5298-0.1618-0.98729-0.1688-1.988-0.021-3.0033 0.2086-1.4326 0.6346-2.2805 1.2794-2.5431 0.465-0.19111 0.9692-0.009 1.5127 0.54813 0.7609 0.77991 1.2604 1.9474 1.4964 3.5017m-6.8598-3.4258c-0.6327-1.1211-0.9987-2.0686-1.0996-2.845-0.043-0.34578-0.042-0.67486 0-0.98735 0.151-1.0487 0.5142-1.5153 1.0908-1.3989 0.2736 0.0484 0.568 0.23402 0.8833 0.5572 0.5382 0.55157 0.9059 1.36 1.1024 2.4249 0.087 0.47448 0.1186 0.92795 0.096 1.3602l-1.0751-0.74237c-0.013-0.60705-0.1334-1.0512-0.3611-1.3324-0.2856-0.29418-0.4684-0.25591-0.5486 0.11436-0.015 0.0544-0.026 0.112-0.035 0.17275-0.035 0.24239 0.051 0.59796 0.2571 1.0671 0.053 0.10075 0.1 0.19037 0.1421 0.26883 0.9685 1.6201 1.3729 2.996 1.2095 4.1207-0.1869 1.2859-0.6419 1.7474-1.363 1.3863-0.2125-0.10686-0.4437-0.2915-0.6935-0.55377-0.7356-0.77253-1.1714-1.8316-1.3093-3.1786-0.029-0.30752-0.04-0.61997-0.034-0.93738l1.0187 0.74949c-0.021 0.69718 0.1661 1.2517 0.5608 1.6642 0.384 0.40128 0.6187 0.30931 0.7036-0.27672 0.041-0.28278-0.07-0.69526-0.3339-1.2368-0.073-0.14551-0.1441-0.27776-0.2138-0.39674m-2.7094-10.321c0.066-0.46272 0.2213-0.69683 0.4657-0.70223 0.1063-0.007 0.2142 0.0444 0.3236 0.15563 0.2361 0.23991 0.3866 0.6183 0.4513 1.1351 0.032 0.24051 0.032 0.4667 0 0.67852-0.065 0.45403-0.2211 0.68776-0.4676 0.70128-0.1123 0.00075-0.2201-0.0518-0.3234-0.1575-0.2355-0.24104-0.3853-0.61917-0.4496-1.1345-0.032-0.23968-0.032-0.46509 0-0.67629m-0.1966 1.9945l1.0856 1.1133-1.1331 7.894-1.0792-1.1327 1.1267-7.8746m-5.1191 7.4365l-1.0503-1.1129 1.56-11.051 1.0589 1.086-0.068 0.47804c0.3236-0.14732 0.6526-0.0556 0.987 0.27567 0.5769 0.59133 0.9715 1.5636 1.1825 2.9165 0.17 1.0939 0.1794 2.1716 0.028 3.2317-0.2054 1.4392-0.5911 2.2693-1.156 2.4911-0.3912 0.15045-0.8313-0.0315-1.3199-0.5446-0.2691-0.28262-0.4986-0.797-0.68848-1.5428l-0.53413 3.7719m2.6401-5.4461c0.1264-0.88795 0.1035-1.7073-0.069-2.4572-0.079-0.35631-0.1778-0.59546-0.2962-0.71752-0.2707-0.27877-0.534-0.28744-0.79-0.0266-0.2361 0.25815-0.4041 0.74017-0.504 1.446-0.1814 1.2813-0.091 2.2757 0.272 2.9852 0.07 0.14168 0.1471 0.2566 0.2315 0.34473 0.2585 0.27019 0.5057 0.2141 0.7415-0.16892 0.1851-0.299 0.3231-0.76761 0.4139-1.4058m-4.0388-10.832c0.0639-0.45562 0.21363-0.68828 0.44937-0.6979 0.10263-0.009 0.20672 0.0399 0.31228 0.14712 0.22776 0.23145 0.3729 0.6004 0.43524 1.1068 0.0306 0.23564 0.0311 0.45777 0.002 0.66633-0.0629 0.44705-0.2134 0.67936-0.45118 0.69702-0.10833 0.003-0.21234-0.0469-0.31202-0.14893-0.22726-0.23254-0.37177-0.60126-0.43372-1.1062-0.0303-0.23483-0.0309-0.45621-0.002-0.66418m-0.18994 1.9624l1.0474 1.0741-1.094 7.7733-1.0413-1.0929 1.088-7.7545m-3.0905 5.6528l1.0298 1.0808 1.4681-10.494-1.0378-1.0555-0.44945 3.2225c-0.12411-0.58854-0.31976-1.0421-0.58674-1.3607-0.0531-0.0657-0.11508-0.13492-0.18582-0.20743-0.55409-0.56787-1.0664-0.53299-1.5372 0.10218-0.37918 0.51455-0.6408 1.294-0.78537 2.3385-0.1944 1.4047-0.11936 2.6824 0.22547 3.8358 0.24057 0.79987 0.59555 1.4465 1.0656 1.9402 0.25995 0.27298 0.54762 0.30581 0.86314 0.0979l-0.0697 0.49947m-1.0379-5.4549c0.1209-0.8709 0.33043-1.4438 0.62891-1.7185 0.14795-0.12775 0.27898-0.13296 0.39303-0.0155 0.25554 0.26322 0.4418 0.71345 0.55858 1.3508 0.11835 0.62829 0.12752 1.3013 0.0275 2.0183-0.17663 1.2663-0.48061 1.8366-0.91131 1.7122-0.084-0.0203-0.16667-0.073-0.24802-0.15805-0.24897-0.26018-0.41167-0.73818-0.48832-1.4341-0.0605-0.54422-0.0473-1.1291 0.0396-1.7551m-3.5876-7.9116l-1.0228 2.382 1.1575 1.1986-0.13476-3.5807m0.18897 5.6328l-1.7341-1.8052-0.89239 2.1262-1.1803-1.2387s3.5704-8.0711 3.5704-8.0711l0.99584 1.0128 0.55394 12.432-1.1981-1.2574-0.11531-3.1985m-11.153-67.357c-0.0489 0.37529 0.00063 0.67664 0.14866 0.90427 0.0237 0.0318 0.0505 0.0609 0.0805 0.0874 0.17446 0.15442 0.29941 0.0715 0.37474-0.24895 0.0126-0.0535 0.0233-0.11392 0.0321-0.18128 0.044-0.33745 0.01-0.631-0.10237-0.88046-0.0349-0.0737-0.0748-0.13032-0.11977-0.16989-0.12973-0.11422-0.24327-0.0532-0.34067 0.18301-0.0337 0.0885-0.0581 0.19043-0.0731 0.30586l-0.00001-0.00001m-0.7826-0.69094c0.0961-0.73971 0.31939-1.2021 0.67022-1.3872 0.23687-0.11453 0.47766-0.0648 0.72237 0.14955 0.36511 0.3198 0.62282 0.8687 0.77266 1.6467 0.0988 0.52843 0.11533 1.044 0.0496 1.5464-0.096 0.73374-0.31965 1.1817-0.67042 1.3438-0.23771 0.11124-0.47864 0.0581-0.72276-0.15911-0.37323-0.33207-0.63126-0.88304-0.77461-1.653-0.095-0.50184-0.11072-0.99744-0.0471-1.4872m-0.86315-6.2727c-0.0485 0.37442 0.00067 0.6734 0.14746 0.89715 0.0233 0.0308 0.0499 0.059 0.0796 0.0848 0.17296 0.15039 0.29672 0.0656 0.37116-0.25463 0.0125-0.0535 0.0231-0.11382 0.0318-0.18103 0.0437-0.33666 0.01-0.62811-0.10138-0.87416-0.0346-0.0727-0.0741-0.12822-0.11864-0.16673-0.1285-0.11111-0.24099-0.0481-0.33748 0.18879-0.0334 0.0887-0.0576 0.19065-0.0725 0.30581v-0.00002m-0.77526-0.67227c0.0953-0.738 0.31653-1.2026 0.66426-1.3938 0.22965-0.12257 0.46807-0.0777 0.71531 0.13495 0.36666 0.31541 0.62446 0.85861 0.77292 1.6296 0.0978 0.52424 0.11416 1.0371 0.049 1.5383-0.0951 0.73207-0.31918 1.18-0.67166 1.3439-0.2305 0.11971-0.46916 0.0715-0.71597-0.14418-0.36971-0.32312-0.62524-0.8663-0.76708-1.6296-0.093-0.50731-0.10863-1.0003-0.0468-1.4792m0.54145 7.9456l-0.75768-0.6888s3.5514-6.4459 3.5514-6.4459l0.73531 0.64911s-3.5291 6.4856-3.5291 6.4856m-3.2825-7.5635c-0.34769-0.34648-0.87354-0.65356-1.576-0.92095l1.1755-5.1314 2.4259 2.0831-0.2161 1.6794-1.6699-1.4428-0.45508 1.8565c0.12919-0.004 0.26394 0.0551 0.40426 0.17715-0.0435-0.0379-0.00008-0.00006 0.13046 0.1135 0.53333 0.46401 0.93649 1.2179 1.2086 2.2619 0.24933 0.97189 0.31077 1.95 0.18412 2.9328-0.11432 0.88701-0.38064 1.5004-0.79829 1.8401-0.41792 0.34871-0.88289 0.29411-1.3945-0.16217-0.76931-0.68608-1.2501-1.7251-1.4449-3.1182-0.0511-0.39205-0.0883-0.82962-0.11175-1.3128l0.97524 0.4979c0.0258 0.80238 0.17013 1.4098 0.43328 1.8225 0.10233 0.16444 0.22339 0.30863 0.3632 0.43257 0.31389 0.27824 0.57839 0.25342 0.79327-0.0751 0.1201-0.17951 0.20158-0.4358 0.24438-0.76886 0.0918-0.714 0.028-1.374-0.1911-1.9792-0.1269-0.3547-0.28715-0.61671-0.48068-0.78607m-4.0728-6.6672l-0.55061 0.44661-0.4252-1.8387 1.2796-0.88552 0.91762 0.78793-1.2739 10.048-0.9252-0.82448 0.97767-7.7338m27.453 5.2486c-0.25019-0.54223-0.41362-0.84442-0.49055-0.9071-0.25788-0.21009-0.52652-0.11407-0.80586 0.28741-0.17519 0.26133-0.28468 0.55366-0.32858 0.87713l-0.61609 4.539-1.025-0.85495s1.0716-7.918 1.0716-7.918l1.0309 0.83519s-0.11544 0.85044-0.11544 0.85044c0.35898-0.49573 0.68688-0.62403 0.98355-0.38388 0.25296 0.20478 0.49929 0.57341 0.73896 1.1062 0.0607 0.13948 0.11032 0.27006 0.14895 0.3917l-0.59235 1.1768m-4.1222-5.5382l1.0204 0.82667-1.0664 7.9006-1.0146-0.84625 0.105-0.78019c-0.19841 0.32428-0.40715 0.48375-0.62617 0.47869-0.0815-0.0124-0.15687-0.0476-0.22619-0.10541-1.0684-0.89174-1.4288-2.6186-1.0853-5.188l0.55844-4.1776 1.0072 0.81596-0.55741 4.1578c-0.11118 0.82925-0.0943 1.5421 0.0507 2.1392 0.0638 0.27475 0.15175 0.45861 0.2638 0.55154 0.29379 0.24369 0.54347 0.11171 0.74885-0.39666 0.0993-0.2518 0.17397-0.56321 0.2239-0.93421l0.59782-4.442m-4.891-2.114l-0.54163-0.44157 0.22093-1.6667 0.54228 0.43933 0.24167-1.8203 0.99582 0.80122-0.24297 1.8248 0.59439 0.48154-0.22348 1.6755-0.59368-0.484-0.54387 4.0845c-0.0608 0.45634 0.0507 0.80214 0.33465 1.0378l0.15019 0.12464-0.21059 1.5788-0.15002-0.12522c-0.6823-0.56952-1.0686-1.2492-1.1608-2.0402-0.0428-0.37621-0.0287-0.83138 0.0422-1.3657l0.54493-4.1044m-3.7642-1.5337l1.5619 1.2801c0.0588-0.66283-0.0153-1.232-0.22198-1.7068-0.0968-0.221-0.21492-0.38822-0.35419-0.5017-0.31975-0.26049-0.58838-0.14686-0.80613 0.34011-0.0786 0.16447-0.13843 0.36058-0.17963 0.58835m-0.21685 1.6506c-0.0596 0.79959 0.0367 1.4288 0.28921 1.8883 0.0782 0.14134 0.17139 0.25686 0.27949 0.34654 0.30883 0.25621 0.5558 0.18272 0.74063-0.22111l0.83424 1.2484c-0.26492 0.65554-0.64702 0.9608-1.1456 0.91658-0.22559-0.0244-0.44111-0.12239-0.64659-0.2939-0.53346-0.44528-0.92065-1.2357-1.1625-2.3712-0.21616-1.0261-0.25233-2.0869-0.10863-3.184 0.16564-1.2646 0.50757-2.1261 1.0268-2.5846 0.41653-0.35925 0.8544-0.3536 1.3138 0.0183 0.54846 0.44404 0.93003 1.2513 1.1436 2.4219 0.17761 0.96706 0.19576 1.9853 0.0544 3.0535l-0.10988 0.83022-2.509-2.0691m-2.7989-5.6444l-0.52153-0.42518 0.21292-1.6386 0.52214 0.42302 0.2329-1.7896 0.95874 0.77138-0.23413 1.7939 0.57223 0.46359-0.21533 1.6471-0.57156-0.46597-0.52408 4.0156c-0.0586 0.44866 0.0487 0.78625 0.32211 1.0131l0.1446 0.12-0.20292 1.5522-0.14444-0.12056c-0.65694-0.54836-1.0289-1.2093-1.1176-1.9841-0.0412-0.36848-0.0276-0.81531 0.0408-1.3407l0.52517-4.0353m-1.1153-1.1354l-0.88263 0.344c-0.0944-0.54949-0.18696-0.92026-0.27776-1.1125-0.0772-0.16992-0.17544-0.30349-0.29477-0.40071-0.2883-0.23486-0.55591-0.11584-0.80293 0.35628-0.17229 0.31877-0.29509 0.76312-0.36851 1.3331-0.11696 0.90803-0.0571 1.6945 0.17971 2.3604 0.11974 0.34527 0.27124 0.59397 0.45455 0.74604 0.23335 0.15075 0.41302 0.10159 0.53884-0.14776 0.0636-0.10834 0.10722-0.16878 0.13087-0.18129l0.6499 1.5688c-0.25253 0.3271-0.45475 0.52374-0.60684 0.59025-0.28268 0.13966-0.59083 0.0754-0.92432-0.19217-0.69197-0.57758-1.1423-1.508-1.3528-2.7916-0.13451-0.85735-0.13989-1.7672-0.0161-2.7307 0.1746-1.3594 0.53017-2.2423 1.0678-2.6486 0.38774-0.2946 0.80778-0.25931 1.2603 0.10705 0.63342 0.51279 1.0488 1.446 1.2446 2.7994m-6.3776-3.4831l1.4714 1.2058c0.0555-0.64456-0.0142-1.1951-0.20884-1.6511-0.0912-0.21221-0.20242-0.37174-0.33361-0.47864-0.3012-0.24538-0.55432-0.12889-0.75957 0.34876-0.074 0.16144-0.13048 0.35316-0.16934 0.57517m-0.20459 1.6069c-0.0563 0.77742 0.0343 1.3858 0.27221 1.8259 0.0737 0.13533 0.16145 0.24525 0.2633 0.32974 0.29093 0.24136 0.52361 0.16421 0.69782-0.23202l0.78567 1.1918c-0.24965 0.64238-0.60965 0.94765-1.0793 0.91656-0.21255-0.0183-0.4156-0.10832-0.60918-0.2699-0.5026-0.41952-0.86734-1.1775-1.0951-2.2738-0.20355-0.99084-0.23747-2.0196-0.10187-3.0878 0.1563-1.2313 0.47867-2.0753 0.96802-2.5322 0.39253-0.35825 0.80508-0.36285 1.2378-0.0125 0.5166 0.41824 0.87589 1.1928 1.0769 2.3237 0.16713 0.93421 0.18407 1.9218 0.0507 2.9616l-0.10363 0.80816-2.3634-1.949m-2.9753-2.6267c-0.51628-0.84355-0.81491-1.6012-0.89705-2.2746-0.0352-0.30039-0.0343-0.59737 0.003-0.89103 0.12388-0.98545 0.42088-1.5018 0.89187-1.5487 0.22341-0.0284 0.46373 0.0615 0.72104 0.26975 0.43903 0.35543 0.73879 0.98705 0.89857 1.8948 0.0704 0.4047 0.0964 0.80482 0.0779 1.2002l-0.87704-0.38526c-0.0103-0.54369-0.10844-0.91226-0.29425-1.1056-0.23308-0.18987-0.38236-0.10719-0.44806 0.24775-0.0119 0.0529-0.0215 0.10789-0.0287 0.16497-0.0287 0.22776 0.0411 0.52569 0.20949 0.89411 0.0428 0.077 0.0814 0.14525 0.11588 0.20482 0.78995 1.2043 1.1193 2.3372 0.98538 3.3939-0.15313 1.2083-0.52471 1.7448-1.1133 1.6107-0.17355-0.0399-0.3623-0.14504-0.56619-0.31523-0.60072-0.50142-0.95638-1.3409-1.0685-2.5192-0.0232-0.26978-0.0324-0.54856-0.0275-0.83637l0.83225 0.40637c-0.0172 0.63409 0.13507 1.0846 0.45734 1.352 0.31344 0.26003 0.50517 0.11495 0.57477-0.43575 0.0336-0.26573-0.0572-0.60805-0.2721-1.0265-0.0594-0.11193-0.11751-0.2123-0.17446-0.30111v0.00001m-4.2442-0.13064l-0.87294-0.72809 0.91598-7.3668 0.87756 0.71094-0.0792 0.63539c0.27895-0.38553 0.65203-0.38957 1.1199-0.0109 0.45019 0.36444 0.68275 1.2144 0.69679 2.5494 0.003 0.59668-0.04 1.2496-0.12888 1.9584l-0.49532 3.948-0.88361-0.73699 0.4893-3.9107c0.0967-0.77303 0.0927-1.4416-0.0121-2.0051-0.0431-0.23268-0.10197-0.37944-0.17667-0.44031-0.16811-0.13695-0.35253-0.0796-0.55321 0.17163-0.19472 0.24523-0.3213 0.60272-0.37987 1.0726l-0.51773 4.1526m-4.1986-7.5168c0.15627-1.2716 0.46519-2.1237 0.9276-2.5563 0.34951-0.32096 0.72286-0.32113 1.1202 0.00055 0.50365 0.40774 0.85436 1.1655 1.0512 2.2733 0.16154 0.90514 0.17961 1.8638 0.0541 2.8747-0.15784 1.2719-0.46915 2.1268-0.9331 2.5649-0.35267 0.323-0.72713 0.31863-1.1232-0.012-0.49954-0.41697-0.84552-1.1761-1.0388-2.2775-0.16177-0.91045-0.18108-1.8659-0.058-2.8677m0.86268 0.70921c-0.087 0.70652-0.0656 1.3847 0.0643 2.0351 0.0871 0.43086 0.20804 0.7105 0.36274 0.83883 0.23231 0.19273 0.45848 0.0312 0.67848-0.48522 0.14794-0.34048 0.25141-0.74876 0.31032-1.2247 0.0879-0.70983 0.0662-1.391-0.0648-2.043-0.089-0.42207-0.20882-0.69446-0.35956-0.81727-0.21911-0.17849-0.44052-0.0306-0.66422 0.44293-0.15857 0.35193-0.26761 0.76968-0.32721 1.2534m-1.6176 0.36714c-0.53953 1.2532-1.1886 1.5612-1.946 0.92892-0.89109-0.74387-1.3972-2.0797-1.5219-4.0094-0.0574-0.92495-0.0216-1.9192 0.1075-2.9838 0.21495-1.7728 0.60646-2.9206 1.1758-3.4431 0.42855-0.39541 0.93086-0.36321 1.5076 0.0986 0.56075 0.44901 0.96575 1.2372 1.2139 2.3648 0.0763 0.34746 0.12788 0.69548 0.15464 1.044l-0.9193-0.0706c-0.0814-0.58513-0.22517-1.0625-0.43111-1.432-0.0727-0.12999-0.14482-0.22381-0.21636-0.28149-0.6385-0.51464-1.1095-0.0179-1.4144 1.4866-0.0603 0.29501-0.11222 0.622-0.15587 0.98098-0.17897 1.4718-0.14316 2.6593 0.10758 3.5648 0.13589 0.48734 0.33273 0.83803 0.59073 1.052 0.29404 0.24388 0.61926 0.0157 0.97585-0.68594l0.77138 1.3857m-43.376-10.121c-0.0338 0.31542-0.0001 0.55952 0.10118 0.73243 0.0162 0.0238 0.0346 0.0451 0.0551 0.064 0.11943 0.10961 0.2051 0.0281 0.25696-0.24464 0.009-0.0455 0.016-0.0966 0.0221-0.1532 0.0304-0.28354 0.007-0.5227-0.0694-0.71737-0.0239-0.0573-0.0512-0.10005-0.0819-0.12813-0.0888-0.0811-0.16667-0.0189-0.23361 0.18644-0.0232 0.0767-0.04 0.16349-0.0504 0.26049m-0.5361-0.4908c0.0665-0.62187 0.22-1.0273 0.4607-1.2163 0.16245-0.11897 0.32742-0.10249 0.49492 0.0497 0.24982 0.22697 0.42585 0.65423 0.52782 1.2818 0.0672 0.42653 0.0781 0.8509 0.0327 1.2728-0.0663 0.61637-0.21977 1.0098-0.46012 1.1804-0.16292 0.11675-0.32796 0.0979-0.4951-0.0562-0.2556-0.23576-0.43212-0.66467-0.52984-1.2867-0.0648-0.40534-0.0752-0.81376-0.0311-1.2255m-0.58745-5.1029c-0.0336 0.3148-0.00006 0.55731 0.10054 0.72768 0.016 0.0231 0.0342 0.0438 0.0545 0.0622 0.1186 0.10698 0.2036 0.0243 0.25493-0.24818 0.009-0.0455 0.0159-0.0965 0.022-0.153 0.0302-0.28296 0.007-0.52071-0.0689-0.71314-0.0237-0.0566-0.0508-0.0987-0.0813-0.12606-0.0881-0.0791-0.16537-0.0156-0.23179 0.19013-0.023 0.0768-0.0397 0.16359-0.05 0.2604v-0.00001m-0.53194-0.47863c0.066-0.62061 0.21839-1.0274 0.45735-1.2204 0.15776-0.12437 0.32139-0.111 0.49089 0.0403 0.2513 0.22437 0.42768 0.64797 0.52887 1.2708 0.0666 0.42379 0.0775 0.84635 0.0324 1.2675-0.0658 0.61514-0.2198 1.0084-0.46171 1.1797-0.15824 0.12248-0.322 0.10688-0.49125-0.0466-0.25362-0.22993-0.42871-0.65371-0.52556-1.2713-0.0635-0.41067-0.0738-0.81729-0.031-1.2201m0.3657 6.5229l-0.51996-0.49189 2.4415-5.695 0.5029 0.46261-2.4244 5.7243m-2.22-8.5075s-0.38887 0.42623-0.38887 0.42623l-0.29883-1.5038 0.90366-0.86167 0.64632 0.57606-0.90565 8.5493-0.65239-0.60266 0.69576-6.5835m-4.2216 1.2511l0.65423 0.15761c0.0225 0.60118 0.11155 1.06 0.2673 1.3767 0.0414 0.0815 0.0865 0.14464 0.13528 0.18947 0.37166 0.34159 0.60155 0.0962 0.68897-0.73715 0.0633-0.60334-0.0206-1.1192-0.25139-1.5468-0.0864-0.16534-0.18833-0.30133-0.30561-0.40798l-0.18558-0.16873 0.12932-1.2366 0.187 0.15601c0.27744 0.25093 0.46946 0.21154 0.57571-0.11874 0.043-0.13548 0.077-0.32254 0.102-0.56117 0.0459-0.43755 0.002-0.82497-0.131-1.1619-0.0619-0.16007-0.13536-0.27818-0.22037-0.35433l-0.0148-0.0133c-0.17304-0.15499-0.3248-0.0346-0.45534 0.36066 0 0-0.55391-0.92677-0.55391-0.92677 0.2961-0.96591 0.68548-1.2349 1.1689-0.80447 0.47186 0.42016 0.75943 1.1037 0.8616 2.0501 0.0462 0.4515 0.0429 0.92848-0.01 1.4307-0.0695 0.66157-0.2649 1.065-0.58558 1.2102-0.007-0.006-0.0157-0.005-0.0271 0.002 0.13759 0.22916 0.24376 0.60427 0.31845 1.1254 0.0805 0.53543 0.0944 1.0539 0.0417 1.555-0.10954 1.0418-0.35411 1.6402-0.73301 1.7954-0.22099 0.0915-0.46995 0.009-0.74673-0.2468-0.40922-0.37832-0.68346-1.0688-0.82348-2.0715-0.0471-0.32889-0.076-0.67978-0.0867-1.0527m22.306-0.56121l-0.38843-0.32934 0.15978-1.4289 0.38882 0.32768 0.17467-1.56 0.71342 0.59725-0.17547 1.5634 0.42563 0.3587-0.16133 1.4354-0.4252-0.3605-0.39294 3.5011c-0.0439 0.39125 0.0358 0.6745 0.23926 0.84999l0.10761 0.0928-0.15213 1.3536-0.1075-0.0932c-0.48909-0.42419-0.76588-0.96684-0.83151-1.6287-0.0305-0.31489-0.02-0.7014 0.0313-1.1597l0.39404-3.5193m-2.7043-0.99053l1.1227 0.95672c0.0427-0.56634-0.0101-1.0424-0.15838-1.4279-0.0695-0.17934-0.15427-0.31141-0.25436-0.39622-0.22982-0.19473-0.42319-0.0766-0.58025 0.35395-0.0566 0.14583-0.0999 0.31696-0.12971 0.51342m-0.15728 1.4171c-0.0435 0.68282 0.0254 1.2083 0.20686 1.5769 0.0562 0.11332 0.12317 0.20349 0.20091 0.27051 0.22203 0.19144 0.39974 0.1086 0.53297-0.24894l0.59886 0.98818c-0.19088 0.57742-0.4658 0.86803-0.82432 0.87236-0.16228-0.002-0.3173-0.0667-0.46506-0.19489-0.38373-0.33282-0.66202-0.9707-0.83545-1.9134-0.15502-0.85232-0.18033-1.7491-0.076-2.6914 0.12024-1.0861 0.36716-1.8444 0.74136-2.2752 0.30007-0.3382 0.61513-0.36876 0.94527-0.0907 0.394 0.33183 0.66765 0.98469 0.82029 1.9587 0.1269 0.80442 0.13921 1.6652 0.0369 2.5814l-0.0795 0.71219-1.803-1.5457m-3.0324 0.22493l-0.68152-0.59066 0.38008-3.465c0.10926-1.1761 0.0863-1.8669-0.0687-2.0716-0.14418-0.12216-0.28943-0.0354-0.43573 0.26003-0.11191 0.2328-0.18925 0.54497-0.2321 0.93655l-0.40282 3.682-0.675-0.585 0.71303-6.5327 0.67815 0.57151-0.078 0.71324c0.20333-0.45746 0.39431-0.62035 0.57289-0.48807 0.39391 0.33172 0.61472 0.84245 0.66168 1.5317 0.002 0.02 0.004 0.0398 0.005 0.0595 0.26492-0.46289 0.58489-0.53688 0.96027-0.22077 0.41638 0.35065 0.60432 1.1668 0.56295 2.4474-0.0153 0.42859-0.0546 0.9287-0.11773 1.5002l-0.38814 3.5125-0.68813-0.59638 0.38366-3.4802c0.11029-1.1814 0.0871-1.8756-0.0694-2.0819-0.14547-0.12326-0.29212-0.0367-0.43994 0.2595-0.11298 0.23347-0.19106 0.54684-0.23431 0.94015l-0.40661 3.6981m-3.6068-10.061l-0.68421 2.2204 0.7711 0.65755-0.0869-2.8779m0.12134 4.5334s-1.1554-0.99164-1.1554-0.99164l-0.59792 1.9792-0.78832-0.68322 2.3915-7.5571 0.66282 0.55293 0.35862 9.9621-0.79706-0.69079-0.0742-2.5715m-4.8546-7.192l-0.35317-0.29945 0.14566-1.3682 0.35352 0.29793 0.15921-1.4936 0.64849 0.54291-0.1599 1.4966 0.38685 0.32602-0.14701 1.3742-0.38647-0.32768-0.35814 3.3521c-0.04 0.37464 0.0324 0.64161 0.21734 0.80115l0.0978 0.0844-0.13865 1.296-0.0977-0.0847c-0.44464-0.38565-0.69623-0.8924-0.75577-1.5209-0.0276-0.29905-0.0181-0.66793 0.0287-1.1068l0.35922-3.3699m-1.255-4.2359c0.0396-0.37374 0.13165-0.59774 0.27618-0.67196 0.0629-0.0362 0.12666-0.0274 0.19125 0.0264 0.13932 0.11612 0.22788 0.36285 0.26559 0.74018 0.0185 0.17515 0.0187 0.34823 0.00047 0.51924-0.039 0.36657-0.13134 0.59051-0.27704 0.67183-0.0664 0.0329-0.13008 0.0237-0.19109-0.0276-0.13911-0.11692-0.22737-0.36365-0.2649-0.74022-0.0184-0.17469-0.0185-0.34733-0.00046-0.51793m-0.11833 1.5858l0.64108 0.54027-0.67793 6.3796-0.63819-0.5531 0.67504-6.3668m-3.5152 1.572l0.65142 0.0341c0.0528 0.70208 0.12852 1.1876 0.22706 1.4564 0.0778 0.22486 0.18495 0.39614 0.32151 0.51384 0.28337 0.24425 0.48838 0.14855 0.61468-0.28774 0.0345-0.12012 0.0598-0.25672 0.076-0.40981 0.0579-0.5485-0.0584-1.1228-0.34851-1.722-0.0658-0.13515-0.1391-0.26782-0.21986-0.39798-0.56241-0.89077-0.84191-1.8418-0.84013-2.8558 0.001-0.1828 0.011-0.36265 0.0295-0.53959 0.0962-0.91688 0.33934-1.4445 0.73022-1.5827 0.22127-0.0698 0.459 0.001 0.71328 0.21293 0.55338 0.46122 0.88547 1.3378 0.99474 2.6293 0 0-0.69951-0.0851-0.69951-0.0851-0.0554-0.51325-0.18868-0.87597-0.39963-1.0881-0.0166-0.014-0.035-0.0294-0.0551-0.0462-0.34404-0.28857-0.54923-0.11419-0.61617 0.52242-0.0517 0.49154 0.0979 1.0522 0.44928 1.6832 0.025 0.0389 0.0621 0.10118 0.11144 0.18693 0.42779 0.78502 0.69373 1.5218 0.79693 2.2089 0.0707 0.47468 0.08 0.95875 0.0278 1.4519-0.0941 0.88871-0.32024 1.4514-0.67796 1.688-0.25817 0.16335-0.5372 0.11472-0.83698-0.14529-0.60437-0.52417-0.95377-1.6665-1.05-3.4276m-1.6698-4.2482c-0.14805-0.38609-0.24484-0.59832-0.29048-0.637-0.15304-0.12967-0.31282-0.0224-0.47932 0.32155-0.10445 0.22308-0.16987 0.46189-0.19631 0.71651l-0.37111 3.5743-0.60989-0.52858 0.6461-6.2367 0.6126 0.51627-0.0695 0.66913c0.21393-0.42608 0.40894-0.56531 0.58496-0.41709 0.15003 0.12635 0.29592 0.37954 0.43766 0.75977 0.0359 0.0998 0.0652 0.19406 0.088 0.28283 0 0-0.35275 0.97897-0.35275 0.97897m-4.2724-1.9314c0.11063-1.0781 0.32801-1.8184 0.65266-2.2209 0.24529-0.29909 0.50696-0.33188 0.78511-0.0976 0.35239 0.29678 0.59733 0.89938 0.73424 1.8079 0.11234 0.74212 0.12426 1.5416 0.0357 2.3976-0.11141 1.0771-0.32995 1.8198-0.65513 2.228-0.24727 0.30206-0.50966 0.33241-0.78707 0.0918-0.35-0.30356-0.59214-0.90753-0.72699-1.8118-0.11286-0.74752-0.12569-1.5456-0.0385-2.395m0.60469 0.51683c-0.0616 0.59886-0.0471 1.1643 0.0436 1.6968 0.0608 0.35261 0.14533 0.57566 0.25368 0.66908 0.16268 0.14026 0.32129-0.0152 0.4758-0.46682 0.10389-0.29797 0.17666-0.6486 0.21827-1.0518 0.0621-0.60128 0.0474-1.1689-0.0439-1.7023-0.062-0.34503-0.14573-0.56221-0.25124-0.65161-0.15339-0.12996-0.30867 0.0132-0.46583 0.42911-0.11144 0.30842-0.1882 0.66757-0.23036 1.0775m-1.3454 0.45027c-0.0337 0.32935 0.0203 0.55514 0.16228 0.67754l-0.13141 1.2825c-0.36209-0.31404-0.57572-0.73357-0.64158-1.259-0.0395-0.31531-0.0348-0.71162 0.014-1.1891l0.69141-6.7676 0.5972 0.49822-0.69187 6.7575m-3.0677-4.2222c0.10773-1.0647 0.31933-1.7974 0.63527-2.1981 0.23871-0.29777 0.49333-0.33306 0.76396-0.10515 0.34286 0.28875 0.58113 0.88033 0.71427 1.7749 0.10925 0.73067 0.12079 1.519 0.0346 2.3643-0.10847 1.0636-0.32116 1.7986-0.63759 2.205-0.24062 0.30079-0.49594 0.33376-0.76586 0.0997-0.34056-0.29537-0.57615-0.88832-0.70731-1.7787-0.10977-0.73605-0.1222-1.5231-0.0373-2.3619m0.58839 0.50291c-0.06 0.59139-0.0459 1.149 0.0423 1.6732 0.0591 0.3471 0.14138 0.56614 0.24681 0.65704 0.15828 0.13647 0.31263-0.0187 0.46301-0.46591 0.1011-0.29509 0.17194-0.64175 0.21246-1.0399 0.0604-0.59376 0.0462-1.1534-0.0426-1.6785-0.0603-0.3396-0.14177-0.55287-0.24442-0.63985-0.14924-0.12644-0.30035 0.0165-0.45331 0.42853-0.10846 0.30548-0.18319 0.6606-0.22424 1.0654m-1.4793-2.5897c0.0961-0.95338 0.0665-1.7652-0.0887-2.4343-0.0942-0.41558-0.22379-0.69257-0.38874-0.83106l-0.44328-0.37216-0.55424 5.5223 0.44154 0.38032c0.25258 0.21755 0.48185 0.0456 0.6877-0.51674 0.15549-0.42172 0.27077-1.0045 0.34576-1.7484m0.63543 0.54007c-0.13256 1.3119-0.38426 2.2505-0.75446 2.8156-0.32316 0.50251-0.67339 0.58958-1.0505 0.26277l-1.0348-0.89682 0.82269-8.2151 1.0408 0.86826c0.42531 0.35481 0.72623 1.065 0.90198 2.1307 0.15858 0.94261 0.18335 1.9546 0.0742 3.0345"/>
          </g>
        </g>
      </g>
    </g>
    <path id="path2985" style="color:#000000" d="m729.78 416.12c-1.75 0.0297-3.7184 0.21373-6.2812 0.53125-16.127 1.998-28.623 10.716-35.562 24.812-3.2839 6.6712-3.4375 7.465-3.4375 18 0 10.28 0.19787 11.478 3.125 17.656 1.726 3.6429 4.7635 8.4262 6.75 10.625s3.625 4.1984 3.625 4.4688c0 0.27034-2.9347 1.9482-6.5312 3.7188-11.332 5.5786-20.276 16.148-23.375 27.656-1.1969 4.4451-5.6858 88.485-6.6562 124.41l-0.625 22.5 4.5938 14.25c2.5139 7.8452 5.2102 15.495 6 17 4.1102 7.8311 16.796 15.384 29.844 17.75 18.552 3.3635 36.051 0.09 44.375-8.3125 1.576-1.5908 6.1594-9.3633 10.156-17.281l7.25-14.406 2.47-19.5c4.3617-34.662 12.715-123.25 12.156-128.81-1.1-10.89-9.79-24.13-20.66-31.47-2.475-1.6716-4.6576-3.1697-4.8438-3.3125-0.1861-0.14281 2.5635-3.0819 6.0938-6.5625 10.593-10.444 15.233-23.743 13-37.219-2.8894-17.437-15.499-31.047-32.656-35.281-3.568-0.88048-5.8959-1.2682-8.8125-1.2188z" transform="translate(0 227.36)" stroke="#ccc" fill="#1a1a1a"/>
    <path id="path3767" style="color:#000000" d="m162.5 349.62c-15.934 0.0685-27.113 6.762-33.719 20.188-2.93 5.96-3.28 7.56-3.28 15.19 0.001 7.6048 0.37255 9.28 3.25 15.125 3.0684 6.2329 10.045 13.981 16.25 18.031 1.375 0.89756 2.275 1.8115 2 2.0312-0.275 0.21979-3.1353 2.3197-6.3438 4.6875-11.625 8.5793-16.796 20.728-14.688 34.406 2.2508 14.6 17.11 95.622 20 109.06 2.8295 13.161 3.3373 14.509 10.25 26.375 7.6453 13.123 9.4712 15.044 16.781 17.688 7.1748 2.5946 27.256 1.6724 36.844-1.6875 9.7601-3.4204 17.891-8.4282 20.688-12.719 1.4329-2.1981 3.3125-8.4022 5.0312-16.688l2.7188-13.188-1.6875-15.312c-1.79-16.18-12.87-97.12-14.68-107.31-2.47-13.81-12.6-24.4-28.16-29.44-2.0625-0.66774-3.75-1.4781-3.75-1.7812 0-0.30319 1.638-2.3319 3.625-4.5312 6.0205-6.664 7.869-11.908 7.875-22.25 0.007-12.023-3.0824-19.008-12.094-27.438-8.58-8.02-14.97-10.49-26.91-10.44z" transform="translate(0 227.36)" stroke="#ccc" fill="#1a1a1a"/>
    <path id="path3745" style="color:#000000" d="m302.5 420.56c-8.9797 0.0464-12.054 0.46284-16.75 2.3125-10.958 4.3163-20.478 13.914-24.906 25.125-3.075 7.7847-3.0422 21.245 0.0625 29.25 2.6201 6.7554 9.5822 16.216 14.531 19.75 1.9254 1.375 3.4997 2.95 3.5 3.5 0.00035 0.55-1.8164 2.125-4.0625 3.5-5.6985 3.4884-12.821 11.55-16.312 18.469-4.9622 9.8331-4.7393 15.06 3.4062 77.031 6.6305 50.445 11.164 80.944 12.688 85.188 1.9037 5.3007 14.11 26.324 17.125 29.5 3.7212 3.9197 10.729 7.4292 17.562 8.7812 6.6741 1.3204 17.608 1.1106 25.156-0.46875 10.25-2.1446 22.367-8.45 27.75-14.438 4.0979-4.5579 4.782-6.1528 9.0625-21.25l4.625-16.312-0.96875-17c-1.5-25.96-8.82-116.16-10.03-123.5-2.1724-13.181-11.184-24.559-24.844-31.438l-7.1875-3.6562 2.09-2.68c8.357-10.732 11-17.693 11-28.938 0-17.149-9.6465-31.966-25.812-39.625-6.2756-2.9731-7.3528-3.1472-17.688-3.0938z" transform="translate(0 227.36)" stroke="#ccc" fill="#1a1a1a"/>
    <path id="path3723" style="color:#000000" d="m514.44 418.16c-15.847 0.33743-31.494 9.2941-38.375 23.844-8.132 17.195-5.3998 34.97 7.5312 48.938l5.4375 5.8438-5.3438 3.0312c-10.69 6.0331-19.285 17.456-21.719 28.875-0.76 3.55-0.34 21.01 1.53 65.82 3.52 84.244 3.0821 80.286 10.594 98.094 3.3726 7.9954 7.2578 15.875 8.625 17.5 4.7561 5.6522 14.624 10.174 25.781 11.812 10.841 1.5924 26.375-0.79764 35.531-5.4375 8.4901-4.3022 12.125-8.8229 16.875-21.062 8.971-23.116 8.079-14.409 9.1562-91.719 0.65518-47.02 0.6377-70.794-0.0625-74.594-2.23-12.09-10-22.81-21.38-29.47-3.64-2.13-6.62-4.19-6.62-4.56 0-0.36961 1.6219-2.2296 3.5938-4.125 1.9718-1.8954 4.7018-5.3616 6.0938-7.7188 13.116-22.211 4.3789-50.343-19.062-61.312-5.752-2.6917-11.987-3.882-18.188-3.75z" transform="translate(0 227.36)" stroke="#ccc" fill="#1a1a1a"/>
  </g>
  <metadata>
    <rdf:RDF>
      <cc:Work>
        <dc:format>image/svg+xml</dc:format>
        <dc:type rdf:resource="http://purl.org/dc/dcmitype/StillImage"/>
        <cc:license rdf:resource="http://creativecommons.org/licenses/publicdomain/"/>
        <dc:publisher>
          <cc:Agent rdf:about="http://openclipart.org/">
            <dc:title>Openclipart</dc:title>
          </cc:Agent>
        </dc:publisher>
      </cc:Work>
      <cc:License rdf:about="http://creativecommons.org/licenses/publicdomain/">
        <cc:permits rdf:resource="http://creativecommons.org/ns#Reproduction"/>
        <cc:permits rdf:resource="http://creativecommons.org/ns#Distribution"/>
        <cc:permits rdf:resource="http://creativecommons.org/ns#DerivativeWorks"/>
      </cc:License>
    </rdf:RDF>
  </metadata>
</svg>
