<svg version="1.1" xmlns="http://www.w3.org/2000/svg" xmlns:xlink="http://www.w3.org/1999/xlink" viewBox="0 0 172 172"><g fill="none" fill-rule="nonzero" stroke="none" stroke-width="1" stroke-linecap="butt" stroke-linejoin="miter" stroke-miterlimit="10" stroke-dasharray="" stroke-dashoffset="0" font-family="none" font-weight="none" font-size="none" text-anchor="none" style="mix-blend-mode: normal"><path d="M0,172v-172h172v172z" fill="none"></path><g fill="#ffffff"><path d="M77.18864,14.67627c-0.9449,-0.01663 -1.90486,0.07925 -2.86947,0.29395v-0.007l-47.36019,10.52604c-7.34776,1.63343 -12.62565,8.21892 -12.62565,15.74707v89.52735c0,7.52996 5.28032,14.11418 12.62565,15.74707l47.36019,10.52604v-0.007c7.71685,1.71777 15.26416,-4.33766 15.26416,-12.24072v-117.57812c0,-6.91518 -5.7804,-12.41826 -12.39469,-12.53467zM100.33333,39.59863v39.91357l12.57666,8.88835l48.30501,-33.3278c-0.3225,-8.6 -7.41834,-15.47412 -16.09001,-15.47412zM51.95833,59.125c11.051,0 19.70833,12.59183 19.70833,28.66667c0,16.07483 -8.65733,28.66667 -19.70833,28.66667c-11.051,0 -19.70833,-12.59183 -19.70833,-28.66667c0,-16.07483 8.65733,-28.66667 19.70833,-28.66667zM161.25,68.11833l-45.33057,31.24919c-0.89583,0.645 -1.96943,0.96582 -3.04443,0.96582c-1.075,0 -2.18276,-0.31998 -3.11442,-1.00081l-9.42724,-6.66976v43.68587h44.79167c8.88667,0 16.125,-7.23833 16.125,-16.125zM51.95833,69.875c-4.22833,0 -8.95833,7.66117 -8.95833,17.91667c0,10.2555 4.73,17.91667 8.95833,17.91667c4.22833,0 8.95833,-7.66117 8.95833,-17.91667c0,-10.2555 -4.73,-17.91667 -8.95833,-17.91667z"></path></g></g></svg>