<?xml version="1.0" encoding="UTF-8"?>
<svg width="18px" height="18px" viewBox="0 0 18 18" version="1.1" xmlns="http://www.w3.org/2000/svg" xmlns:xlink="http://www.w3.org/1999/xlink">
    <title>🎨 Icon Сolor</title>
    <defs>
        <path d="M11.1817,15.2725 L11.1817,21.0005 L5.5567,21.0005 C5.0487,21.0005 4.6367,20.5925 4.6367,20.0905 L4.6367,20.0905 L4.6367,15.2725 L11.1817,15.2725 Z M19.3634,15.272 L19.3634,20.091 C19.3634,20.593 18.9514,21 18.4434,21 L18.4434,21 L12.8184,21 L12.8184,15.272 L19.3634,15.272 Z M20.0996,7.0908 L18.2576,7.0908 C18.4366,6.7178 18.5456,6.3048 18.5456,5.8628 C18.5456,4.2848 17.2606,2.9998 15.6816,2.9998 C13.8006,2.9998 12.6606,4.3198 11.9996,5.5688 C11.3386,4.3198 10.1996,2.9998 8.3186,2.9998 C6.7396,2.9998 5.4536,4.2848 5.4536,5.8628 C5.4536,6.3048 5.5636,6.7178 5.7426,7.0908 L3.9006,7.0908 C3.4036,7.0908 2.9996,7.6768 2.9996,8.4008 L2.9996,12.3268 C2.9996,13.0498 3.4036,13.6368 3.9006,13.6368 L4.6366,13.6368 L11.1816,13.6368 L11.1816,7.0908 L12.8186,7.0908 L12.8186,13.6368 L19.3636,13.6368 L20.0996,13.6368 C20.5966,13.6368 20.9996,13.0498 20.9996,12.3268 L20.9996,8.4008 C20.9996,7.6768 20.5966,7.0908 20.0996,7.0908 L20.0996,7.0908 Z M15.6816,7.0908 L13.1006,7.0908 C13.4866,6.0748 14.2806,4.6368 15.6816,4.6368 C16.3586,4.6368 16.9096,5.1868 16.9096,5.8628 C16.9096,6.5398 16.3586,7.0908 15.6816,7.0908 L15.6816,7.0908 Z M8.3186,7.0908 C7.6416,7.0908 7.0906,6.5398 7.0906,5.8628 C7.0906,5.1868 7.6416,4.6368 8.3186,4.6368 C9.7196,4.6368 10.5136,6.0748 10.8996,7.0908 L8.3186,7.0908 Z" id="path-1"></path>
    </defs>
    <g id="Symbols" stroke="none" stroke-width="1" fill="none" fill-rule="evenodd">
        <g id="Icon-/-Solid-/-gift-fill" transform="translate(-3.000000, -3.000000)">
            <mask id="mask-2" fill="white">
                <use xlink:href="#path-1"></use>
            </mask>
            <use id="🎨-Icon-Сolor" fill="#000000" xlink:href="#path-1"></use>
        </g>
    </g>
</svg>