<?xml version="1.0" encoding="UTF-8"?>
<svg width="26px" height="22px" viewBox="0 0 26 22" version="1.1" xmlns="http://www.w3.org/2000/svg" xmlns:xlink="http://www.w3.org/1999/xlink">
    <title>icons/ Bar  /Calendar Copy 2</title>
    <defs>
        <linearGradient x1="1.46315029%" y1="15.2487644%" x2="98.2229949%" y2="84.526523%" id="linearGradient-1">
            <stop stop-color="#FF5980" offset="0%"></stop>
            <stop stop-color="#FFA882" offset="100%"></stop>
        </linearGradient>
    </defs>
    <g id="Dashboard" stroke="none" stroke-width="1" fill="none" fill-rule="evenodd">
        <g transform="translate(-23.000000, -385.000000)" id="Menu">
            <g id="icons/-Bar--/Calendar-Copy-2" transform="translate(23.000000, 385.000000)">
                <g id="Group-Copy" fill="url(#linearGradient-1)">
                    <path d="M5,12 C7.76142375,12 10,14.2385763 10,17 C10,19.7614237 7.76142375,22 5,22 C2.23857625,22 3.38176876e-16,19.7614237 0,17 C-3.38176876e-16,14.2385763 2.23857625,12 5,12 Z M21,0 C23.7614237,-5.07265313e-16 26,2.23857625 26,5 C26,7.76142375 23.7614237,10 21,10 C18.2385763,10 16,7.76142375 16,5 C16,2.23857625 18.2385763,5.07265313e-16 21,0 Z" id="Combined-Shape"></path>
                </g>
                <rect id="Rectangle" fill="#FFFFFF" x="0" y="3" width="13" height="4" rx="2"></rect>
                <rect id="Rectangle-Copy" fill="#FFFFFF" x="13" y="15" width="13" height="4" rx="2"></rect>
            </g>
        </g>
    </g>
</svg>